<?xml version="1.0" encoding="utf-8"?>
<!-- Generator: Adobe Illustrator 19.2.0, SVG Export Plug-In . SVG Version: 6.00 Build 0)  -->
<svg version="1.1"
	 id="svg5669" inkscape:output_extension="org.inkscape.output.svg.inkscape" inkscape:version="0.46" sodipodi:docname="Lindos3.svg" sodipodi:version="0.32" xmlns:cc="http://creativecommons.org/ns#" xmlns:dc="http://purl.org/dc/elements/1.1/" xmlns:inkscape="http://www.inkscape.org/namespaces/inkscape" xmlns:rdf="http://www.w3.org/1999/02/22-rdf-syntax-ns#" xmlns:sodipodi="http://sodipodi.sourceforge.net/DTD/sodipodi-0.dtd" xmlns:svg="http://www.w3.org/2000/svg"
	 xmlns="http://www.w3.org/2000/svg" xmlns:xlink="http://www.w3.org/1999/xlink" x="0px" y="0px" viewBox="0 0 1474 669.8"
	 style="enable-background:new 0 0 1474 669.8;" xml:space="preserve">
<style type="text/css">
	.st0{fill:#DAD8D2;}
	.st1{fill:#00B7C6;}
	.st2{font-family:'MyriadPro-Regular';}
	.st3{font-size:28px;}
	.st4{font-size:24px;}
</style>
<path class="st0" d="M706.5,37.3h-1v0H705v-1.5H109.7v3h43.2V74h-43.2v1h43.2v35.2h-43.2v3h43.2v35.2h-43.2v1h43.2v35.2h-43.2v3
	h43.2v35.2h-43.2v1h43.2V259h-43.2v3h43.2v35.2h-43.2v1h43.2v35.2h-43.2v3h43.2v35.2h-43.2v1h43.2v35.2h-43.2v3h43.2V446h-43.2v1
	h43.2v35.2h-43.2v3h43.2v35.2h-43.2v1h43.2v36.7h1v0h1v0h1v-36.7h23.1v36.7h1v0h1v0h1v-36.7h15.6v36.7h1v0h1v0h1v-36.7h11.9v36.7h1
	v0h1v0h1v-36.7h8.9v36.7h1v0h1v0h1v-36.7h6.7v36.7h1v0h1v0h1v-36.7h5.2v36.7h1v0h1v0h1v-36.7h5.2v36.7h1v0h1v0h1v-36.7h3.7v36.7h1v0
	h1v0h1v-36.7h41.7v36.7h3v-36.7h23.1v36.7h3v-36.7h15.6v36.7h3v-36.7h11.9v36.7h3v-36.7h8.9v36.7h3v-36.7h6.7v36.7h3v-36.7h5.2v36.7
	h3v-36.7h5.2v36.7h3v-36.7h3.7v36.7h3v-36.7h41.7v36.7h3v-36.7h23.1v36.7h3v-36.7h16.1v36.7h3v-36.7h11.5v36.7h3v-36.7h8.9v36.7h3
	v-36.7h6.7v36.7h3v-36.7h5.2v36.7h3v-36.7h5.2v36.7h3v-36.7h3.7v36.7h3v-36.7h41.7v36.7h3v-36.7h23.1v36.7h3v-36.7H644v36.7h3v-36.7
	h11.9v36.7h3v-36.7h8.9v36.7h3v-36.7h6.7v36.7h3v-36.7h5.2v36.7h3v-36.7h5.2v36.7h3v-36.7h3.7v36.7h1v0h1v0h1V37.3z M644,259h-15.6
	v-35.2H644V259z M647,223.8h11.9V259H647V223.8z M625.4,259h-23.1v-35.2h23.1V259z M599.4,259h-41.7v-35.2h41.7V259z M554.7,259H551
	v-35.2h3.7V259z M548,259h-5.2v-35.2h5.2V259z M539.8,259h-5.2v-35.2h5.2V259z M531.6,259h-6.7v-35.2h6.7V259z M522,259H513v-35.2
	h8.9V259z M510.1,259h-11.5v-35.2h11.5V259z M495.6,259h-16.1v-35.2h16.1V259z M476.6,259h-23.1v-35.2h23.1V259z M450.5,259h-41.7
	v-35.2h41.7V259z M405.9,259h-3.7v-35.2h3.7V259z M399.2,259H394v-35.2h5.2V259z M391,259h-5.2v-35.2h5.2V259z M382.8,259h-6.7
	v-35.2h6.7V259z M373.2,259h-8.9v-35.2h8.9V259z M361.2,259h-11.9v-35.2h11.9V259z M346.4,259h-15.6v-35.2h15.6V259z M327.8,259
	h-23.1v-35.2h23.1V259z M301.7,259H260v-35.2h41.7V259z M257.1,259h-3.7v-35.2h3.7V259z M250.4,259h-5.2v-35.2h5.2V259z M242.2,259
	H237v-35.2h5.2V259z M234,259h-6.7v-35.2h6.7V259z M224.3,259h-8.9v-35.2h8.9V259z M212.4,259h-11.9v-35.2h11.9V259z M200.5,262
	h11.9v35.2h-11.9V262z M215.4,262h8.9v35.2h-8.9V262z M227.3,262h6.7v35.2h-6.7V262z M237,262h5.2v35.2H237V262z M245.2,262h5.2
	v35.2h-5.2V262z M253.4,262h3.7v35.2h-3.7V262z M260,262h41.7v35.2H260V262z M304.7,262h23.1v35.2h-23.1V262z M330.7,262h15.6v35.2
	h-15.6V262z M349.3,262h11.9v35.2h-11.9V262z M364.2,262h8.9v35.2h-8.9V262z M376.1,262h6.7v35.2h-6.7V262z M385.8,262h5.2v35.2
	h-5.2V262z M394,262h5.2v35.2H394V262z M402.2,262h3.7v35.2h-3.7V262z M408.9,262h41.7v35.2h-41.7V262z M453.5,262h23.1v35.2h-23.1
	V262z M479.6,262h16.1v35.2h-16.1V262z M498.6,262h11.5v35.2h-11.5V262z M513,262h8.9v35.2H513V262z M524.9,262h6.7v35.2h-6.7V262z
	 M534.6,262h5.2v35.2h-5.2V262z M542.8,262h5.2v35.2h-5.2V262z M551,262h3.7v35.2H551V262z M557.7,262h41.7v35.2h-41.7V262z
	 M602.3,262h23.1v35.2h-23.1V262z M628.4,262H644v35.2h-15.6V262z M647,262h11.9v35.2H647V262z M661.9,262h8.9v35.2h-8.9V262z
	 M661.9,259v-35.2h8.9V259H661.9z M661.9,222.8v-35.2h8.9v35.2H661.9z M658.9,222.8H647v-35.2h11.9V222.8z M644,222.8h-15.6v-35.2
	H644V222.8z M625.4,222.8h-23.1v-35.2h23.1V222.8z M599.4,222.8h-41.7v-35.2h41.7V222.8z M554.7,222.8H551v-35.2h3.7V222.8z
	 M548,222.8h-5.2v-35.2h5.2V222.8z M539.8,222.8h-5.2v-35.2h5.2V222.8z M531.6,222.8h-6.7v-35.2h6.7V222.8z M522,222.8H513v-35.2
	h8.9V222.8z M510.1,222.8h-11.5v-35.2h11.5V222.8z M495.6,222.8h-16.1v-35.2h16.1V222.8z M476.6,222.8h-23.1v-35.2h23.1V222.8z
	 M450.5,222.8h-41.7v-35.2h41.7V222.8z M405.9,222.8h-3.7v-35.2h3.7V222.8z M399.2,222.8H394v-35.2h5.2V222.8z M391,222.8h-5.2
	v-35.2h5.2V222.8z M382.8,222.8h-6.7v-35.2h6.7V222.8z M373.2,222.8h-8.9v-35.2h8.9V222.8z M361.2,222.8h-11.9v-35.2h11.9V222.8z
	 M346.4,222.8h-15.6v-35.2h15.6V222.8z M327.8,222.8h-23.1v-35.2h23.1V222.8z M301.7,222.8H260v-35.2h41.7V222.8z M257.1,222.8h-3.7
	v-35.2h3.7V222.8z M250.4,222.8h-5.2v-35.2h5.2V222.8z M242.2,222.8H237v-35.2h5.2V222.8z M234,222.8h-6.7v-35.2h6.7V222.8z
	 M224.3,222.8h-8.9v-35.2h8.9V222.8z M212.4,222.8h-11.9v-35.2h11.9V222.8z M197.5,222.8h-15.6v-35.2h15.6V222.8z M197.5,223.8V259
	h-15.6v-35.2H197.5z M197.5,262v35.2h-15.6V262H197.5z M197.5,298.2v35.2h-15.6v-35.2H197.5z M200.5,298.2h11.9v35.2h-11.9V298.2z
	 M215.4,298.2h8.9v35.2h-8.9V298.2z M227.3,298.2h6.7v35.2h-6.7V298.2z M237,298.2h5.2v35.2H237V298.2z M245.2,298.2h5.2v35.2h-5.2
	V298.2z M253.4,298.2h3.7v35.2h-3.7V298.2z M260,298.2h41.7v35.2H260V298.2z M304.7,298.2h23.1v35.2h-23.1V298.2z M330.7,298.2h15.6
	v35.2h-15.6V298.2z M349.3,298.2h11.9v35.2h-11.9V298.2z M364.2,298.2h8.9v35.2h-8.9V298.2z M376.1,298.2h6.7v35.2h-6.7V298.2z
	 M385.8,298.2h5.2v35.2h-5.2V298.2z M394,298.2h5.2v35.2H394V298.2z M402.2,298.2h3.7v35.2h-3.7V298.2z M408.9,298.2h41.7v35.2
	h-41.7V298.2z M453.5,298.2h23.1v35.2h-23.1V298.2z M479.6,298.2h16.1v35.2h-16.1V298.2z M498.6,298.2h11.5v35.2h-11.5V298.2z
	 M513,298.2h8.9v35.2H513V298.2z M524.9,298.2h6.7v35.2h-6.7V298.2z M534.6,298.2h5.2v35.2h-5.2V298.2z M542.8,298.2h5.2v35.2h-5.2
	V298.2z M551,298.2h3.7v35.2H551V298.2z M557.7,298.2h41.7v35.2h-41.7V298.2z M602.3,298.2h23.1v35.2h-23.1V298.2z M628.4,298.2H644
	v35.2h-15.6V298.2z M647,298.2h11.9v35.2H647V298.2z M661.9,298.2h8.9v35.2h-8.9V298.2z M673.8,298.2h6.7v35.2h-6.7V298.2z
	 M673.8,297.2V262h6.7v35.2H673.8z M673.8,259v-35.2h6.7V259H673.8z M673.8,222.8v-35.2h6.7v35.2H673.8z M673.8,184.6v-35.2h6.7
	v35.2H673.8z M670.8,184.6h-8.9v-35.2h8.9V184.6z M658.9,184.6H647v-35.2h11.9V184.6z M644,184.6h-15.6v-35.2H644V184.6z
	 M625.4,184.6h-23.1v-35.2h23.1V184.6z M599.4,184.6h-41.7v-35.2h41.7V184.6z M554.7,184.6H551v-35.2h3.7V184.6z M548,184.6h-5.2
	v-35.2h5.2V184.6z M539.8,184.6h-5.2v-35.2h5.2V184.6z M531.6,184.6h-6.7v-35.2h6.7V184.6z M522,184.6H513v-35.2h8.9V184.6z
	 M510.1,184.6h-11.5v-35.2h11.5V184.6z M495.6,184.6h-16.1v-35.2h16.1V184.6z M476.6,184.6h-23.1v-35.2h23.1V184.6z M450.5,184.6
	h-41.7v-35.2h41.7V184.6z M405.9,184.6h-3.7v-35.2h3.7V184.6z M399.2,184.6H394v-35.2h5.2V184.6z M391,184.6h-5.2v-35.2h5.2V184.6z
	 M382.8,184.6h-6.7v-35.2h6.7V184.6z M373.2,184.6h-8.9v-35.2h8.9V184.6z M361.2,184.6h-11.9v-35.2h11.9V184.6z M346.4,184.6h-15.6
	v-35.2h15.6V184.6z M327.8,184.6h-23.1v-35.2h23.1V184.6z M301.7,184.6H260v-35.2h41.7V184.6z M257.1,184.6h-3.7v-35.2h3.7V184.6z
	 M250.4,184.6h-5.2v-35.2h5.2V184.6z M242.2,184.6H237v-35.2h5.2V184.6z M234,184.6h-6.7v-35.2h6.7V184.6z M224.3,184.6h-8.9v-35.2
	h8.9V184.6z M212.4,184.6h-11.9v-35.2h11.9V184.6z M197.5,184.6h-15.6v-35.2h15.6V184.6z M181.9,336.4h15.6v35.2h-15.6V336.4z
	 M200.5,336.4h11.9v35.2h-11.9V336.4z M215.4,336.4h8.9v35.2h-8.9V336.4z M227.3,336.4h6.7v35.2h-6.7V336.4z M237,336.4h5.2v35.2
	H237V336.4z M245.2,336.4h5.2v35.2h-5.2V336.4z M253.4,336.4h3.7v35.2h-3.7V336.4z M260,336.4h41.7v35.2H260V336.4z M304.7,336.4
	h23.1v35.2h-23.1V336.4z M330.7,336.4h15.6v35.2h-15.6V336.4z M349.3,336.4h11.9v35.2h-11.9V336.4z M364.2,336.4h8.9v35.2h-8.9
	V336.4z M376.1,336.4h6.7v35.2h-6.7V336.4z M385.8,336.4h5.2v35.2h-5.2V336.4z M394,336.4h5.2v35.2H394V336.4z M402.2,336.4h3.7
	v35.2h-3.7V336.4z M408.9,336.4h41.7v35.2h-41.7V336.4z M453.5,336.4h23.1v35.2h-23.1V336.4z M479.6,336.4h16.1v35.2h-16.1V336.4z
	 M498.6,336.4h11.5v35.2h-11.5V336.4z M513,336.4h8.9v35.2H513V336.4z M524.9,336.4h6.7v35.2h-6.7V336.4z M534.6,336.4h5.2v35.2
	h-5.2V336.4z M542.8,336.4h5.2v35.2h-5.2V336.4z M551,336.4h3.7v35.2H551V336.4z M557.7,336.4h41.7v35.2h-41.7V336.4z M602.3,336.4
	h23.1v35.2h-23.1V336.4z M628.4,336.4H644v35.2h-15.6V336.4z M647,336.4h11.9v35.2H647V336.4z M661.9,336.4h8.9v35.2h-8.9V336.4z
	 M673.8,336.4h6.7v35.2h-6.7V336.4z M683.4,336.4h5.2v35.2h-5.2V336.4z M683.4,333.4v-35.2h5.2v35.2H683.4z M683.4,297.2V262h5.2
	v35.2H683.4z M683.4,259v-35.2h5.2V259H683.4z M683.4,222.8v-35.2h5.2v35.2H683.4z M683.4,184.6v-35.2h5.2v35.2H683.4z M683.4,148.4
	v-35.2h5.2v35.2H683.4z M680.5,148.4h-6.7v-35.2h6.7V148.4z M670.8,148.4h-8.9v-35.2h8.9V148.4z M658.9,148.4H647v-35.2h11.9V148.4z
	 M644,148.4h-15.6v-35.2H644V148.4z M625.4,148.4h-23.1v-35.2h23.1V148.4z M599.4,148.4h-41.7v-35.2h41.7V148.4z M554.7,148.4H551
	v-35.2h3.7V148.4z M548,148.4h-5.2v-35.2h5.2V148.4z M539.8,148.4h-5.2v-35.2h5.2V148.4z M531.6,148.4h-6.7v-35.2h6.7V148.4z
	 M522,148.4H513v-35.2h8.9V148.4z M510.1,148.4h-11.5v-35.2h11.5V148.4z M495.6,148.4h-16.1v-35.2h16.1V148.4z M476.6,148.4h-23.1
	v-35.2h23.1V148.4z M450.5,148.4h-41.7v-35.2h41.7V148.4z M405.9,148.4h-3.7v-35.2h3.7V148.4z M399.2,148.4H394v-35.2h5.2V148.4z
	 M391,148.4h-5.2v-35.2h5.2V148.4z M382.8,148.4h-6.7v-35.2h6.7V148.4z M373.2,148.4h-8.9v-35.2h8.9V148.4z M361.2,148.4h-11.9
	v-35.2h11.9V148.4z M346.4,148.4h-15.6v-35.2h15.6V148.4z M327.8,148.4h-23.1v-35.2h23.1V148.4z M301.7,148.4H260v-35.2h41.7V148.4z
	 M257.1,148.4h-3.7v-35.2h3.7V148.4z M250.4,148.4h-5.2v-35.2h5.2V148.4z M242.2,148.4H237v-35.2h5.2V148.4z M234,148.4h-6.7v-35.2
	h6.7V148.4z M224.3,148.4h-8.9v-35.2h8.9V148.4z M212.4,148.4h-11.9v-35.2h11.9V148.4z M197.5,148.4h-15.6v-35.2h15.6V148.4z
	 M181.9,372.6h15.6v35.2h-15.6V372.6z M200.5,372.6h11.9v35.2h-11.9V372.6z M215.4,372.6h8.9v35.2h-8.9V372.6z M227.3,372.6h6.7
	v35.2h-6.7V372.6z M237,372.6h5.2v35.2H237V372.6z M245.2,372.6h5.2v35.2h-5.2V372.6z M253.4,372.6h3.7v35.2h-3.7V372.6z M260,372.6
	h41.7v35.2H260V372.6z M304.7,372.6h23.1v35.2h-23.1V372.6z M330.7,372.6h15.6v35.2h-15.6V372.6z M349.3,372.6h11.9v35.2h-11.9
	V372.6z M364.2,372.6h8.9v35.2h-8.9V372.6z M376.1,372.6h6.7v35.2h-6.7V372.6z M385.8,372.6h5.2v35.2h-5.2V372.6z M394,372.6h5.2
	v35.2H394V372.6z M402.2,372.6h3.7v35.2h-3.7V372.6z M408.9,372.6h41.7v35.2h-41.7V372.6z M453.5,372.6h23.1v35.2h-23.1V372.6z
	 M479.6,372.6h16.1v35.2h-16.1V372.6z M498.6,372.6h11.5v35.2h-11.5V372.6z M513,372.6h8.9v35.2H513V372.6z M524.9,372.6h6.7v35.2
	h-6.7V372.6z M534.6,372.6h5.2v35.2h-5.2V372.6z M542.8,372.6h5.2v35.2h-5.2V372.6z M551,372.6h3.7v35.2H551V372.6z M557.7,372.6
	h41.7v35.2h-41.7V372.6z M602.3,372.6h23.1v35.2h-23.1V372.6z M628.4,372.6H644v35.2h-15.6V372.6z M647,372.6h11.9v35.2H647V372.6z
	 M661.9,372.6h8.9v35.2h-8.9V372.6z M673.8,372.6h6.7v35.2h-6.7V372.6z M683.4,372.6h5.2v35.2h-5.2V372.6z M691.6,372.6h5.2v35.2
	h-5.2V372.6z M691.6,371.6v-35.2h5.2v35.2H691.6z M691.6,333.4v-35.2h5.2v35.2H691.6z M691.6,297.2V262h5.2v35.2H691.6z M691.6,259
	v-35.2h5.2V259H691.6z M691.6,222.8v-35.2h5.2v35.2H691.6z M691.6,184.6v-35.2h5.2v35.2H691.6z M691.6,148.4v-35.2h5.2v35.2H691.6z
	 M691.6,110.2V75h5.2v35.2H691.6z M688.6,110.2h-5.2V75h5.2V110.2z M680.5,110.2h-6.7V75h6.7V110.2z M670.8,110.2h-8.9V75h8.9V110.2
	z M658.9,110.2H647V75h11.9V110.2z M644,110.2h-15.6V75H644V110.2z M625.4,110.2h-23.1V75h23.1V110.2z M599.4,110.2h-41.7V75h41.7
	V110.2z M554.7,110.2H551V75h3.7V110.2z M548,110.2h-5.2V75h5.2V110.2z M539.8,110.2h-5.2V75h5.2V110.2z M531.6,110.2h-6.7V75h6.7
	V110.2z M522,110.2H513V75h8.9V110.2z M510.1,110.2h-11.5V75h11.5V110.2z M495.6,110.2h-16.1V75h16.1V110.2z M476.6,110.2h-23.1V75
	h23.1V110.2z M450.5,110.2h-41.7V75h41.7V110.2z M405.9,110.2h-3.7V75h3.7V110.2z M399.2,110.2H394V75h5.2V110.2z M391,110.2h-5.2
	V75h5.2V110.2z M382.8,110.2h-6.7V75h6.7V110.2z M373.2,110.2h-8.9V75h8.9V110.2z M361.2,110.2h-11.9V75h11.9V110.2z M346.4,110.2
	h-15.6V75h15.6V110.2z M327.8,110.2h-23.1V75h23.1V110.2z M301.7,110.2H260V75h41.7V110.2z M257.1,110.2h-3.7V75h3.7V110.2z
	 M250.4,110.2h-5.2V75h5.2V110.2z M242.2,110.2H237V75h5.2V110.2z M234,110.2h-6.7V75h6.7V110.2z M224.3,110.2h-8.9V75h8.9V110.2z
	 M212.4,110.2h-11.9V75h11.9V110.2z M197.5,110.2h-15.6V75h15.6V110.2z M178.9,110.2h-23.1V75h23.1V110.2z M178.9,113.2v35.2h-23.1
	v-35.2H178.9z M178.9,149.4v35.2h-23.1v-35.2H178.9z M178.9,187.6v35.2h-23.1v-35.2H178.9z M178.9,223.8V259h-23.1v-35.2H178.9z
	 M178.9,262v35.2h-23.1V262H178.9z M178.9,298.2v35.2h-23.1v-35.2H178.9z M178.9,336.4v35.2h-23.1v-35.2H178.9z M178.9,372.6v35.2
	h-23.1v-35.2H178.9z M178.9,410.8V446h-23.1v-35.2H178.9z M181.9,410.8h15.6V446h-15.6V410.8z M200.5,410.8h11.9V446h-11.9V410.8z
	 M215.4,410.8h8.9V446h-8.9V410.8z M227.3,410.8h6.7V446h-6.7V410.8z M237,410.8h5.2V446H237V410.8z M245.2,410.8h5.2V446h-5.2
	V410.8z M253.4,410.8h3.7V446h-3.7V410.8z M260,410.8h41.7V446H260V410.8z M304.7,410.8h23.1V446h-23.1V410.8z M330.7,410.8h15.6
	V446h-15.6V410.8z M349.3,410.8h11.9V446h-11.9V410.8z M364.2,410.8h8.9V446h-8.9V410.8z M376.1,410.8h6.7V446h-6.7V410.8z
	 M385.8,410.8h5.2V446h-5.2V410.8z M394,410.8h5.2V446H394V410.8z M402.2,410.8h3.7V446h-3.7V410.8z M408.9,410.8h41.7V446h-41.7
	V410.8z M453.5,410.8h23.1V446h-23.1V410.8z M479.6,410.8h16.1V446h-16.1V410.8z M498.6,410.8h11.5V446h-11.5V410.8z M513,410.8h8.9
	V446H513V410.8z M524.9,410.8h6.7V446h-6.7V410.8z M534.6,410.8h5.2V446h-5.2V410.8z M542.8,410.8h5.2V446h-5.2V410.8z M551,410.8
	h3.7V446H551V410.8z M557.7,410.8h41.7V446h-41.7V410.8z M602.3,410.8h23.1V446h-23.1V410.8z M628.4,410.8H644V446h-15.6V410.8z
	 M647,410.8h11.9V446H647V410.8z M661.9,410.8h8.9V446h-8.9V410.8z M673.8,410.8h6.7V446h-6.7V410.8z M683.4,410.8h5.2V446h-5.2
	V410.8z M691.6,410.8h5.2V446h-5.2V410.8z M699.8,410.8h3.7V446h-3.7V410.8z M699.8,407.8v-35.2h3.7v35.2H699.8z M699.8,371.6v-35.2
	h3.7v35.2H699.8z M699.8,333.4v-35.2h3.7v35.2H699.8z M699.8,297.2V262h3.7v35.2H699.8z M699.8,259v-35.2h3.7V259H699.8z
	 M699.8,222.8v-35.2h3.7v35.2H699.8z M699.8,184.6v-35.2h3.7v35.2H699.8z M699.8,148.4v-35.2h3.7v35.2H699.8z M699.8,110.2V75h3.7
	v35.2H699.8z M699.8,74V38.8h3.7V74H699.8z M696.8,74h-5.2V38.8h5.2V74z M688.6,74h-5.2V38.8h5.2V74z M680.5,74h-6.7V38.8h6.7V74z
	 M670.8,74h-8.9V38.8h8.9V74z M658.9,74H647V38.8h11.9V74z M644,74h-15.6V38.8H644V74z M625.4,74h-23.1V38.8h23.1V74z M599.4,74
	h-41.7V38.8h41.7V74z M554.7,74H551V38.8h3.7V74z M548,74h-5.2V38.8h5.2V74z M539.8,74h-5.2V38.8h5.2V74z M531.6,74h-6.7V38.8h6.7
	V74z M522,74H513V38.8h8.9V74z M510.1,74h-11.5V38.8h11.5V74z M495.6,74h-16.1V38.8h16.1V74z M476.6,74h-23.1V38.8h23.1V74z
	 M450.5,74h-41.7V38.8h41.7V74z M405.9,74h-3.7V38.8h3.7V74z M399.2,74H394V38.8h5.2V74z M391,74h-5.2V38.8h5.2V74z M382.8,74h-6.7
	V38.8h6.7V74z M373.2,74h-8.9V38.8h8.9V74z M361.2,74h-11.9V38.8h11.9V74z M346.4,74h-15.6V38.8h15.6V74z M327.8,74h-23.1V38.8h23.1
	V74z M301.7,74H260V38.8h41.7V74z M257.1,74h-3.7V38.8h3.7V74z M250.4,74h-5.2V38.8h5.2V74z M242.2,74H237V38.8h5.2V74z M234,74
	h-6.7V38.8h6.7V74z M224.3,74h-8.9V38.8h8.9V74z M212.4,74h-11.9V38.8h11.9V74z M197.5,74h-15.6V38.8h15.6V74z M178.9,74h-23.1V38.8
	h23.1V74z M155.9,447h23.1v35.2h-23.1V447z M181.9,447h15.6v35.2h-15.6V447z M200.5,447h11.9v35.2h-11.9V447z M215.4,447h8.9v35.2
	h-8.9V447z M227.3,447h6.7v35.2h-6.7V447z M237,447h5.2v35.2H237V447z M245.2,447h5.2v35.2h-5.2V447z M253.4,447h3.7v35.2h-3.7V447z
	 M260,447h41.7v35.2H260V447z M304.7,447h23.1v35.2h-23.1V447z M330.7,447h15.6v35.2h-15.6V447z M349.3,447h11.9v35.2h-11.9V447z
	 M364.2,447h8.9v35.2h-8.9V447z M376.1,447h6.7v35.2h-6.7V447z M385.8,447h5.2v35.2h-5.2V447z M394,447h5.2v35.2H394V447z
	 M402.2,447h3.7v35.2h-3.7V447z M408.9,447h41.7v35.2h-41.7V447z M453.5,447h23.1v35.2h-23.1V447z M479.6,447h16.1v35.2h-16.1V447z
	 M498.6,447h11.5v35.2h-11.5V447z M513,447h8.9v35.2H513V447z M524.9,447h6.7v35.2h-6.7V447z M534.6,447h5.2v35.2h-5.2V447z
	 M542.8,447h5.2v35.2h-5.2V447z M551,447h3.7v35.2H551V447z M557.7,447h41.7v35.2h-41.7V447z M602.3,447h23.1v35.2h-23.1V447z
	 M628.4,447H644v35.2h-15.6V447z M647,447h11.9v35.2H647V447z M661.9,447h8.9v35.2h-8.9V447z M673.8,447h6.7v35.2h-6.7V447z
	 M683.4,447h5.2v35.2h-5.2V447z M691.6,447h5.2v35.2h-5.2V447z M699.8,447h3.7v35.2h-3.7V447z M155.9,520.4v-35.2h23.1v35.2H155.9z
	 M181.9,520.4v-35.2h15.6v35.2H181.9z M200.5,520.4v-35.2h11.9v35.2H200.5z M215.4,520.4v-35.2h8.9v35.2H215.4z M227.3,520.4v-35.2
	h6.7v35.2H227.3z M237,520.4v-35.2h5.2v35.2H237z M245.2,520.4v-35.2h5.2v35.2H245.2z M253.4,520.4v-35.2h3.7v35.2H253.4z
	 M260,520.4v-35.2h41.7v35.2H260z M304.7,520.4v-35.2h23.1v35.2H304.7z M330.7,520.4v-35.2h15.6v35.2H330.7z M349.3,520.4v-35.2
	h11.9v35.2H349.3z M364.2,520.4v-35.2h8.9v35.2H364.2z M376.1,520.4v-35.2h6.7v35.2H376.1z M385.8,520.4v-35.2h5.2v35.2H385.8z
	 M394,520.4v-35.2h5.2v35.2H394z M402.2,520.4v-35.2h3.7v35.2H402.2z M408.9,520.4v-35.2h41.7v35.2H408.9z M453.5,520.4v-35.2h23.1
	v35.2H453.5z M479.6,520.4v-35.2h16.1v35.2H479.6z M498.6,520.4v-35.2h11.5v35.2H498.6z M513,520.4v-35.2h8.9v35.2H513z
	 M524.9,520.4v-35.2h6.7v35.2H524.9z M534.6,520.4v-35.2h5.2v35.2H534.6z M542.8,520.4v-35.2h5.2v35.2H542.8z M551,520.4v-35.2h3.7
	v35.2H551z M557.7,520.4v-35.2h41.7v35.2H557.7z M602.3,520.4v-35.2h23.1v35.2H602.3z M628.4,520.4v-35.2H644v35.2H628.4z
	 M647,520.4v-35.2h11.9v35.2H647z M661.9,520.4v-35.2h8.9v35.2H661.9z M673.8,520.4v-35.2h6.7v35.2H673.8z M683.4,520.4v-35.2h5.2
	v35.2H683.4z M691.6,520.4v-35.2h5.2v35.2H691.6z M699.8,520.4v-35.2h3.7v35.2H699.8z"/>
<g id="A_scale">
	<g id="g1641" transform="matrix(7.4409448e-2,0,0,7.4409448e-2,-323.47581,-351.05176)">
		<path id="path1643" class="st1" d="M6406.1,12199.8l119-338l23,8l24,9l-118,337l-24-8L6406.1,12199.8z"/>
		<path id="path1645" class="st1" d="M6548.1,11869.8l-23-8l0,0L6548.1,11869.8z"/>
		<path id="path1647" class="st1" d="M6525.1,11861.8l152-411l24,9l23,8l-152,411l-24-9L6525.1,11861.8z"/>
		<path id="path1649" class="st1" d="M6701.1,11459.7l-24-9v-1L6701.1,11459.7z"/>
		<path id="path1651" class="st1" d="M6677.1,11449.7l162-418l24,9l23,9l-162,419l-23-9L6677.1,11449.7z"/>
		<path id="path1653" class="st1" d="M6863.1,11040.7l-24-9l0,0L6863.1,11040.7z"/>
		<path id="path1655" class="st1" d="M6839.1,11031.7l148-360l23,9l23,9l-147,361l-23-10L6839.1,11031.7z"/>
		<path id="path1657" class="st1" d="M7010.1,10680.7l-23-9v-2L7010.1,10680.7z"/>
		<path id="path1659" class="st1" d="M6987.1,10669.7l150-321l22,11l23,10l-149,322l-23-11L6987.1,10669.7z"/>
		<path id="path1661" class="st1" d="M7159.1,10359.7l-22-11v-1L7159.1,10359.7z"/>
		<path id="path1663" class="st1" d="M7137.1,10347.7l175-345l23,11l22,12l-175,345l-23-11L7137.1,10347.7z"/>
		<path id="path1665" class="st1" d="M7335.1,10013.7l-23-11l0,0L7335.1,10013.7z"/>
		<path id="path1667" class="st1" d="M7312.1,10002.7l280-527l22,12l22,12l-279,526l-22-12L7312.1,10002.7z"/>
		<path id="path1669" class="st1" d="M7614.1,9487.7l22,11v1L7614.1,9487.7z"/>
		<path id="path1671" class="st1" d="M7592.1,9476.7l58-116l22,11l23,11l-59,116l-22-11L7592.1,9476.7z"/>
		<path id="path1673" class="st1" d="M7672.1,9371.7l23,10v1L7672.1,9371.7z"/>
		<path id="path1675" class="st1" d="M7649.1,9361.7l32-70l23,11l22,10l-31,69l-23-10L7649.1,9361.7z"/>
		<path id="path1677" class="st1" d="M7704.1,9302.7l-23-11l0,0L7704.1,9302.7z"/>
		<path id="path1679" class="st1" d="M7681.1,9291.7l16-33l23,11l22,11l-16,33l-22-11L7681.1,9291.7z"/>
		<path id="path1681" class="st1" d="M7720.1,9269.7l-23-11l1-1L7720.1,9269.7z"/>
		<path id="path1683" class="st1" d="M7698.1,9257.7l21-40l22,12l22,12l-21,40l-22-12L7698.1,9257.7z"/>
		<path id="path1685" class="st1" d="M7741.1,9229.7l-22-12l1-1L7741.1,9229.7z"/>
		<path id="path1687" class="st1" d="M7720.1,9216.7l77-126l21,13l21,13l-76,126l-22-13L7720.1,9216.7z"/>
		<path id="path1689" class="st1" d="M7818.1,9103.7l-21-13v-1L7818.1,9103.7z"/>
		<path id="path1691" class="st1" d="M7797.1,9089.7l143-216l21,14l21,14l-143,216l-21-14L7797.1,9089.7z"/>
		<path id="path1693" class="st1" d="M7961.1,8887.7l-21-14l1-1L7961.1,8887.7z"/>
		<path id="path1695" class="st1" d="M7941.1,8872.7l141-193l20,15l20,15l-141,193l-20-15L7941.1,8872.7z"/>
		<path id="path1697" class="st1" d="M8102.1,8694.7l-20-15v-1L8102.1,8694.7z"/>
		<path id="path1699" class="st1" d="M8082.1,8678.7l148-186l20,15l19,16l-148,186l-19-15L8082.1,8678.7z"/>
		<path id="path1701" class="st1" d="M8250.1,8507.7l-20-15l1-1L8250.1,8507.7z"/>
		<path id="path1703" class="st1" d="M8231.1,8491.7l164-196l19,16l19,16l-164,196l-19-16L8231.1,8491.7z"/>
		<path id="path1705" class="st1" d="M8414.1,8311.7l-19-16l0,0L8414.1,8311.7z"/>
		<path id="path1707" class="st1" d="M8395.1,8295.7l232-274l19,17l19,16l-232,273l-19-16L8395.1,8295.7z"/>
		<path id="path1709" class="st1" d="M8646.1,8038.7l-19-17l1-1L8646.1,8038.7z"/>
		<path id="path1711" class="st1" d="M8628.1,8020.7l66-69l18,17l18,17l-66,70l-18-17L8628.1,8020.7z"/>
		<path id="path1713" class="st1" d="M8712.1,7968.7l-18-17l1-1L8712.1,7968.7z"/>
		<path id="path1715" class="st1" d="M8695.1,7950.7l79-78l18,18l17,17l-79,79l-18-18L8695.1,7950.7z"/>
		<path id="path1717" class="st1" d="M8792.1,7890.7l-18-18l1-1L8792.1,7890.7z"/>
		<path id="path1719" class="st1" d="M8775.1,7871.7l219-199l17,18l17,18l-220,200l-16-18L8775.1,7871.7z"/>
		<path id="path1721" class="st1" d="M9011.1,7690.7l-17-18l1-1L9011.1,7690.7z"/>
		<path id="path1723" class="st1" d="M8995.1,7671.7l92-74l16,19l15,20l-91,73l-16-19L8995.1,7671.7z"/>
		<path id="path1725" class="st1" d="M9103.1,7616.7l-16-19l1-1L9103.1,7616.7z"/>
		<path id="path1727" class="st1" d="M9088.1,7596.7l107-75l14,20l14,21l-106,75l-14-21L9088.1,7596.7z"/>
		<path id="path1729" class="st1" d="M9209.1,7541.7l-14-20l1-1L9209.1,7541.7z"/>
		<path id="path1731" class="st1" d="M9196.1,7520.7l114-73l14,21l13,21l-115,73l-13-21L9196.1,7520.7z"/>
		<path id="path1733" class="st1" d="M9324.1,7468.7l-14-21l1-1L9324.1,7468.7z"/>
		<path id="path1735" class="st1" d="M9311.1,7446.7l117-68l13,21l13,22l-118,69l-12-22L9311.1,7446.7z"/>
		<path id="path1737" class="st1" d="M9441.1,7399.7l-13-21l1-1L9441.1,7399.7z"/>
		<path id="path1739" class="st1" d="M9429.1,7377.7l114-61l12,22l12,22l-114,61l-12-22L9429.1,7377.7z"/>
		<path id="path1741" class="st1" d="M9555.1,7338.7l-12-22l1-1L9555.1,7338.7z"/>
		<path id="path1743" class="st1" d="M9544.1,7315.7l105-51l11,22l11,23l-105,51l-11-22L9544.1,7315.7z"/>
		<path id="path1745" class="st1" d="M9660.1,7286.7l-11-22l1-1L9660.1,7286.7z"/>
		<path id="path1747" class="st1" d="M9650.1,7263.7l90-39l10,23l10,23l-90,39l-10-23L9650.1,7263.7z"/>
		<path id="path1749" class="st1" d="M9750.1,7247.7l-10-23h1L9750.1,7247.7z"/>
		<path id="path1751" class="st1" d="M9741.1,7224.7l37-14l9,24l8,23l-37,14l-8-24L9741.1,7224.7z"/>
		<path id="path1753" class="st1" d="M9787.1,7234.7l-9-24h1L9787.1,7234.7z"/>
		<path id="path1755" class="st1" d="M9779.1,7210.7l32-10l7,24l7,24l-31,9l-7-23L9779.1,7210.7z"/>
		<path id="path1757" class="st1" d="M9818.1,7224.7l-7-24h1L9818.1,7224.7z"/>
		<path id="path1759" class="st1" d="M9812.1,7200.7l173-46l6,25l6,24l-173,45l-6-24L9812.1,7200.7z"/>
		<path id="path1761" class="st1" d="M9991.1,7179.7l-6-25l0,0L9991.1,7179.7z"/>
		<path id="path1763" class="st1" d="M9985.1,7154.7l141-34l6,24l6,25l-141,34l-6-24L9985.1,7154.7z"/>
		<path id="path1765" class="st1" d="M10132.1,7144.7l-6-24h1L10132.1,7144.7z"/>
		<path id="path1767" class="st1" d="M10127.1,7120.7l67-14l5,25l4,24l-66,14l-5-25L10127.1,7120.7z"/>
		<path id="path1769" class="st1" d="M10199.1,7131.7l-5-25l0,0L10199.1,7131.7z"/>
		<path id="path1771" class="st1" d="M10194.1,7106.7l68-11l4,24l4,25l-67,11l-4-24L10194.1,7106.7z"/>
		<path id="path1773" class="st1" d="M10266.1,7119.7l-4-24l0,0L10266.1,7119.7z"/>
		<path id="path1775" class="st1" d="M10262.1,7095.7l72-10l3,25l3,25l-71,9l-3-25L10262.1,7095.7z"/>
		<path id="path1777" class="st1" d="M10337.1,7110.7l-3-25l0,0L10337.1,7110.7z"/>
		<path id="path1779" class="st1" d="M10334.1,7085.7l78-8l3,25l3,25l-79,8l-2-25L10334.1,7085.7z"/>
		<path id="path1781" class="st1" d="M10415.1,7102.7l-3-25h1L10415.1,7102.7z"/>
		<path id="path1783" class="st1" d="M10413.1,7077.7l105-7l2,25l1,25l-104,7l-2-25L10413.1,7077.7z"/>
		<path id="path1785" class="st1" d="M10520.1,7095.7l-2-25h1L10520.1,7095.7z"/>
		<path id="path1787" class="st1" d="M10519.1,7070.7l101-3v25l1,25l-101,3v-25L10519.1,7070.7z"/>
		<path id="path1789" class="st1" d="M10620.1,7092.7v-25h1L10620.1,7092.7z"/>
		<path id="path1791" class="st1" d="M10621.1,7067.7l97,2v25v25l-98-2v-25L10621.1,7067.7z"/>
		<path id="path1793" class="st1" d="M10718.1,7094.7v-25h1L10718.1,7094.7z"/>
		<path id="path1795" class="st1" d="M10719.1,7069.7l96,5l-1,25l-1,25l-96-5l1-25L10719.1,7069.7z"/>
		<path id="path1797" class="st1" d="M10814.1,7099.7l1-25h1L10814.1,7099.7z"/>
		<path id="path1799" class="st1" d="M10816.1,7074.7l96,8l-2,25l-3,25l-95-8l2-25L10816.1,7074.7z"/>
		<path id="path1801" class="st1" d="M10910.1,7107.7l2-25l1,1L10910.1,7107.7z"/>
		<path id="path1803" class="st1" d="M10913.1,7083.7l96,11l-3,25l-3,25l-96-12l3-25L10913.1,7083.7z"/>
		<path id="path1805" class="st1" d="M11006.1,7119.7l3-25h1L11006.1,7119.7z"/>
		<path id="path1807" class="st1" d="M11010.1,7094.7l201,32l-4,25l-4,25l-201-32l4-25L11010.1,7094.7z"/>
		<path id="path1809" class="st1" d="M11207.1,7151.7l4-25l1,1L11207.1,7151.7z"/>
		<path id="path1811" class="st1" d="M11212.1,7127.7l98,20l-5,25l-5,24l-98-21l5-24L11212.1,7127.7z"/>
		<path id="path1813" class="st1" d="M11305.1,7172.7l5-25l2,1L11305.1,7172.7z"/>
		<path id="path1815" class="st1" d="M11312.1,7148.7l87,25l-6,24l-7,24l-88-25l7-24L11312.1,7148.7z"/>
		<path id="path1817" class="st1" d="M11393.1,7197.7l6-24l2,1L11393.1,7197.7z"/>
		<path id="path1819" class="st1" d="M11401.1,7174.7l79,29l-9,24l-8,23l-79-30l9-23L11401.1,7174.7z"/>
		<path id="path1821" class="st1" d="M11471.2,7227.7l9-24l2,1L11471.2,7227.7z"/>
		<path id="path1823" class="st1" d="M11482.2,7204.7l73,35l-11,22l-10,23l-73-35l10-22L11482.2,7204.7z"/>
		<path id="path1825" class="st1" d="M11544.2,7261.7l11-22h2L11544.2,7261.7z"/>
		<path id="path1827" class="st1" d="M11557.2,7239.7l69,40l-13,21l-12,22l-69-39l12-22L11557.2,7239.7z"/>
		<path id="path1829" class="st1" d="M11613.2,7300.7l13-21h1L11613.2,7300.7z"/>
		<path id="path1831" class="st1" d="M11627.2,7279.7l67,44l-13,21l-14,21l-67-44l13-21L11627.2,7279.7z"/>
		<path id="path1833" class="st1" d="M11681.2,7344.7l13-21l1,1L11681.2,7344.7z"/>
		<path id="path1835" class="st1" d="M11695.2,7324.7l140,101l-15,20l-15,20l-139-101l15-20L11695.2,7324.7z"/>
		<path id="path1837" class="st1" d="M11820.2,7445.7l15-20l1,1L11820.2,7445.7z"/>
		<path id="path1839" class="st1" d="M11836.2,7426.7l80,64l-16,20l-16,19l-80-65l16-19L11836.2,7426.7z"/>
		<path id="path1841" class="st1" d="M11900.2,7510.7l16-20l1,2L11900.2,7510.7z"/>
		<path id="path1843" class="st1" d="M11917.2,7492.7l78,72l-17,18l-17,18l-78-72l17-18L11917.2,7492.7z"/>
		<path id="path1845" class="st1" d="M11978.2,7582.7l17-18h1L11978.2,7582.7z"/>
		<path id="path1847" class="st1" d="M11996.2,7564.7l76,79l-18,17l-18,18l-76-79l18-17L11996.2,7564.7z"/>
		<path id="path1849" class="st1" d="M12054.2,7660.7l18-17l1,1L12054.2,7660.7z"/>
		<path id="path1851" class="st1" d="M12073.2,7644.7l74,84l-19,16l-19,17l-74-84l19-17L12073.2,7644.7z"/>
		<path id="path1853" class="st1" d="M12128.2,7744.7l19-16v1L12128.2,7744.7z"/>
		<path id="path1855" class="st1" d="M12147.2,7729.7l72,88l-19,16l-19,16l-73-89l20-16L12147.2,7729.7z"/>
		<path id="path1857" class="st1" d="M12200.2,7833.7l19-16l1,1L12200.2,7833.7z"/>
		<path id="path1859" class="st1" d="M12220.2,7818.7l71,93l-20,16l-20,15l-71-94l20-15L12220.2,7818.7z"/>
		<path id="path1861" class="st1" d="M12271.2,7927.7l20-16v1L12271.2,7927.7z"/>
		<path id="path1863" class="st1" d="M12291.2,7912.7l137,197l-20,14l-20,14l-138-196l21-14L12291.2,7912.7z"/>
	</g>
	<g id="g2007" transform="matrix(7.4409448e-2,0,0,7.4409448e-2,-323.47581,-351.05176)">
		<path id="path2009" class="st1" d="M12552.2,8217.7l24,46l-45,23l-23-45L12552.2,8217.7z"/>
		<path id="path2011" class="st1" d="M12599.2,8308.7l24,45l-44,23l-24-45L12599.2,8308.7z"/>
		<path id="path2013" class="st1" d="M12647.2,8398.7l23,45l-44,24l-24-46L12647.2,8398.7z"/>
		<path id="path2015" class="st1" d="M12694.2,8489.7l24,45l-45,23l-23-45L12694.2,8489.7z"/>
		<path id="path2017" class="st1" d="M12741.2,8579.7l24,45l-44,23l-24-45L12741.2,8579.7z"/>
		<path id="path2019" class="st1" d="M12789.2,8669.7l21,40l-23,12l-22,12l-21-41l22-11L12789.2,8669.7z"/>
		<path id="path2021" class="st1" d="M12787.2,8721.7l23-12v2L12787.2,8721.7z"/>
		<path id="path2023" class="st1" d="M12810.2,8711.7l3,5l-23,10l-23,11l-2-6l22-10L12810.2,8711.7z"/>
		<path id="path2025" class="st1" d="M12834.2,8762.7l21,47l-46,20l-21-46L12834.2,8762.7z"/>
		<path id="path2027" class="st1" d="M12875.2,8857.7l19,47l-47,19l-19-47L12875.2,8857.7z"/>
		<path id="path2029" class="st1" d="M12913.2,8952.7l17,48l-47,17l-17-48L12913.2,8952.7z"/>
		<path id="path2031" class="st1" d="M12948.2,9048.7l17,48l-47,17l-17-48L12948.2,9048.7z"/>
		<path id="path2033" class="st1" d="M12982.2,9144.7l17,48l-47,17l-17-48L12982.2,9144.7z"/>
		<path id="path2035" class="st1" d="M13017.2,9240.7l17,48l-47,17l-18-48L13017.2,9240.7z"/>
		<path id="path2037" class="st1" d="M13050.2,9338.7l15,49l-48,14l-15-49L13050.2,9338.7z"/>
		<path id="path2039" class="st1" d="M13079.2,9436.7l15,49l-48,14l-15-49L13079.2,9436.7z"/>
		<path id="path2041" class="st1" d="M13109.2,9534.7l14,48l-48,15l-14-49L13109.2,9534.7z"/>
		<path id="path2043" class="st1" d="M13138.2,9631.7l14,49l-48,14l-14-48L13138.2,9631.7z"/>
		<path id="path2045" class="st1" d="M13167.2,9729.7l1,4l-24,7l-24,8l-1-5l24-7L13167.2,9729.7z"/>
		<path id="path2047" class="st1" d="M13144.2,9740.7l24-7v1L13144.2,9740.7z"/>
		<path id="path2049" class="st1" d="M13168.2,9734.7l12,45l-24,6l-24,7l-12-45l24-7L13168.2,9734.7z"/>
		<path id="path2051" class="st1" d="M13194.2,9828.7l13,49l-48,13l-13-49L13194.2,9828.7z"/>
		<path id="path2053" class="st1" d="M13221.2,9926.7l13,50l-48,13l-14-49L13221.2,9926.7z"/>
		<path id="path2055" class="st1" d="M13247.2,10025.7l14,49l-49,13l-13-49L13247.2,10025.7z"/>
		<path id="path2057" class="st1" d="M13274.2,10123.7l13,50l-48,13l-13-50L13274.2,10123.7z"/>
		<path id="path2059" class="st1" d="M13301.2,10222.7l13,49l-48,13l-13-49L13301.2,10222.7z"/>
		<path id="path2061" class="st1" d="M13328.2,10320.7l13,49l-48,14l-14-50L13328.2,10320.7z"/>
		<path id="path2063" class="st1" d="M13354.2,10419.7l9,31l-24,7l-24,6l-9-31l24-7L13354.2,10419.7z"/>
		<path id="path2065" class="st1" d="M13339.2,10457.7l24-7v1L13339.2,10457.7z"/>
		<path id="path2067" class="st1" d="M13363.2,10451.7l4,17l-24,6l-24,7l-4-18l24-6L13363.2,10451.7z"/>
		<path id="path2069" class="st1" d="M13380.2,10518.7l13,49l-49,12l-12-49L13380.2,10518.7z"/>
		<path id="path2071" class="st1" d="M13405.2,10617.7l13,49l-49,12l-12-49L13405.2,10617.7z"/>
		<path id="path2073" class="st1" d="M13430.2,10716.7l13,49l-49,12l-12-49L13430.2,10716.7z"/>
		<path id="path2075" class="st1" d="M13455.2,10814.7l13,50l-49,12l-12-49L13455.2,10814.7z"/>
		<path id="path2077" class="st1" d="M13480.2,10913.7l13,50l-49,12l-12-49L13480.2,10913.7z"/>
		<path id="path2079" class="st1" d="M13505.2,11012.7l13,50l-49,12l-12-50L13505.2,11012.7z"/>
		<path id="path2081" class="st1" d="M13530.2,11111.7l13,49l-49,13l-12-50L13530.2,11111.7z"/>
		<path id="path2083" class="st1" d="M13555.2,11210.7l13,49l-49,13l-12-50L13555.2,11210.7z"/>
		<path id="path2085" class="st1" d="M13580.2,11309.7l2,6l-24,6l-24,6l-2-6l24-6L13580.2,11309.7z"/>
		<path id="path2087" class="st1" d="M13558.2,11321.7l24-6v1L13558.2,11321.7z"/>
		<path id="path2089" class="st1" d="M13582.2,11316.7l10,43l-24,6l-25,5l-10-43l25-6L13582.2,11316.7z"/>
		<path id="path2091" class="st1" d="M13603.2,11409.7l12,49l-49,12l-11-50L13603.2,11409.7z"/>
		<path id="path2093" class="st1" d="M13626.2,11508.7l12,50l-49,11l-11-50L13626.2,11508.7z"/>
		<path id="path2095" class="st1" d="M13649.2,11608.7l11,49l-48,11l-12-49L13649.2,11608.7z"/>
		<path id="path2097" class="st1" d="M13672.2,11707.7l11,50l-49,11l-11-50L13672.2,11707.7z"/>
		<path id="path2099" class="st1" d="M13695.2,11806.7l11,50l-49,11l-11-49L13695.2,11806.7z"/>
		<path id="path2101" class="st1" d="M13717.2,11906.8l12,50l-49,11l-11-50L13717.2,11906.8z"/>
		<path id="path2103" class="st1" d="M13740.2,12005.8l12,50l-49,11l-12-50L13740.2,12005.8z"/>
		<path id="path2105" class="st1" d="M13763.2,12105.8l11,49l-48,12l-12-50L13763.2,12105.8z"/>
	</g>
</g>
<polygon id="Axis" class="st0" points="111.6,556.3 111.6,37.3 107.9,37.3 107.9,558.1 109.7,558.1 109.7,560 705,560 705,556.3 "/>
<path class="st0" d="M1391.8,37.3h-1v0h-0.5v-1.5H795v3h43.2V74H795v1h43.2v35.2H795v3h43.2v35.2H795v1h43.2v35.2H795v3h43.2v35.2
	H795v1h43.2V259H795v3h43.2v35.2H795v1h43.2v35.2H795v3h43.2v35.2H795v1h43.2v35.2H795v3h43.2V446H795v1h43.2v35.2H795v3h43.2v35.2
	H795v1h43.2v36.7h1v0h1v0h1v-36.7h23.1v36.7h1v0h1v0h1v-36.7h15.6v36.7h1v0h1v0h1v-36.7h11.9v36.7h1v0h1v0h1v-36.7h8.9v36.7h1v0h1v0
	h1v-36.7h6.7v36.7h1v0h1v0h1v-36.7h5.2v36.7h1v0h1v0h1v-36.7h5.2v36.7h1v0h1v0h1v-36.7h3.7v36.7h1v0h1v0h1v-36.7H987v36.7h3v-36.7
	h23.1v36.7h3v-36.7h15.6v36.7h3v-36.7h11.9v36.7h3v-36.7h8.9v36.7h3v-36.7h6.7v36.7h3v-36.7h5.2v36.7h3v-36.7h5.2v36.7h3v-36.7h3.7
	v36.7h3v-36.7h41.7v36.7h3v-36.7h23.1v36.7h3v-36.7h16.1v36.7h3v-36.7h11.5v36.7h3v-36.7h8.9v36.7h3v-36.7h6.7v36.7h3v-36.7h5.2
	v36.7h3v-36.7h5.2v36.7h3v-36.7h3.7v36.7h3v-36.7h41.7v36.7h3v-36.7h23.1v36.7h3v-36.7h15.6v36.7h3v-36.7h11.9v36.7h3v-36.7h8.9
	v36.7h3v-36.7h6.7v36.7h3v-36.7h5.2v36.7h3v-36.7h5.2v36.7h3v-36.7h3.7v36.7h1v0h1v0h1V37.3z M1388.8,74h-3.7V38.8h3.7V74z
	 M1329.3,259h-15.6v-35.2h15.6V259z M1332.3,223.8h11.9V259h-11.9V223.8z M1310.7,259h-23.1v-35.2h23.1V259z M1284.7,259H1243v-35.2
	h41.7V259z M1240,259h-3.7v-35.2h3.7V259z M1233.3,259h-5.2v-35.2h5.2V259z M1225.1,259h-5.2v-35.2h5.2V259z M1216.9,259h-6.7v-35.2
	h6.7V259z M1207.3,259h-8.9v-35.2h8.9V259z M1195.4,259h-11.5v-35.2h11.5V259z M1180.9,259h-16.1v-35.2h16.1V259z M1161.9,259h-23.1
	v-35.2h23.1V259z M1135.8,259h-41.7v-35.2h41.7V259z M1091.2,259h-3.7v-35.2h3.7V259z M1084.5,259h-5.2v-35.2h5.2V259z M1076.3,259
	h-5.2v-35.2h5.2V259z M1068.1,259h-6.7v-35.2h6.7V259z M1058.5,259h-8.9v-35.2h8.9V259z M1046.6,259h-11.9v-35.2h11.9V259z
	 M1031.7,259H1016v-35.2h15.6V259z M1013.1,259H990v-35.2h23.1V259z M987,259h-41.7v-35.2H987V259z M942.4,259h-3.7v-35.2h3.7V259z
	 M935.7,259h-5.2v-35.2h5.2V259z M927.5,259h-5.2v-35.2h5.2V259z M919.3,259h-6.7v-35.2h6.7V259z M909.6,259h-8.9v-35.2h8.9V259z
	 M897.7,259h-11.9v-35.2h11.9V259z M885.8,262h11.9v35.2h-11.9V262z M900.7,262h8.9v35.2h-8.9V262z M912.6,262h6.7v35.2h-6.7V262z
	 M922.3,262h5.2v35.2h-5.2V262z M930.5,262h5.2v35.2h-5.2V262z M938.7,262h3.7v35.2h-3.7V262z M945.4,262H987v35.2h-41.7V262z
	 M990,262h23.1v35.2H990V262z M1016,262h15.6v35.2H1016V262z M1034.6,262h11.9v35.2h-11.9V262z M1049.5,262h8.9v35.2h-8.9V262z
	 M1061.4,262h6.7v35.2h-6.7V262z M1071.1,262h5.2v35.2h-5.2V262z M1079.3,262h5.2v35.2h-5.2V262z M1087.5,262h3.7v35.2h-3.7V262z
	 M1094.2,262h41.7v35.2h-41.7V262z M1138.8,262h23.1v35.2h-23.1V262z M1164.9,262h16.1v35.2h-16.1V262z M1183.9,262h11.5v35.2h-11.5
	V262z M1198.3,262h8.9v35.2h-8.9V262z M1210.3,262h6.7v35.2h-6.7V262z M1219.9,262h5.2v35.2h-5.2V262z M1228.1,262h5.2v35.2h-5.2
	V262z M1236.3,262h3.7v35.2h-3.7V262z M1243,262h41.7v35.2H1243V262z M1287.6,262h23.1v35.2h-23.1V262z M1313.7,262h15.6v35.2h-15.6
	V262z M1332.3,262h11.9v35.2h-11.9V262z M1347.2,262h8.9v35.2h-8.9V262z M1347.2,259v-35.2h8.9V259H1347.2z M1347.2,222.8v-35.2h8.9
	v35.2H1347.2z M1344.2,222.8h-11.9v-35.2h11.9V222.8z M1329.3,222.8h-15.6v-35.2h15.6V222.8z M1310.7,222.8h-23.1v-35.2h23.1V222.8z
	 M1284.7,222.8H1243v-35.2h41.7V222.8z M1240,222.8h-3.7v-35.2h3.7V222.8z M1233.3,222.8h-5.2v-35.2h5.2V222.8z M1225.1,222.8h-5.2
	v-35.2h5.2V222.8z M1216.9,222.8h-6.7v-35.2h6.7V222.8z M1207.3,222.8h-8.9v-35.2h8.9V222.8z M1195.4,222.8h-11.5v-35.2h11.5V222.8z
	 M1180.9,222.8h-16.1v-35.2h16.1V222.8z M1161.9,222.8h-23.1v-35.2h23.1V222.8z M1135.8,222.8h-41.7v-35.2h41.7V222.8z
	 M1091.2,222.8h-3.7v-35.2h3.7V222.8z M1084.5,222.8h-5.2v-35.2h5.2V222.8z M1076.3,222.8h-5.2v-35.2h5.2V222.8z M1068.1,222.8h-6.7
	v-35.2h6.7V222.8z M1058.5,222.8h-8.9v-35.2h8.9V222.8z M1046.6,222.8h-11.9v-35.2h11.9V222.8z M1031.7,222.8H1016v-35.2h15.6V222.8
	z M1013.1,222.8H990v-35.2h23.1V222.8z M987,222.8h-41.7v-35.2H987V222.8z M942.4,222.8h-3.7v-35.2h3.7V222.8z M935.7,222.8h-5.2
	v-35.2h5.2V222.8z M927.5,222.8h-5.2v-35.2h5.2V222.8z M919.3,222.8h-6.7v-35.2h6.7V222.8z M909.6,222.8h-8.9v-35.2h8.9V222.8z
	 M897.7,222.8h-11.9v-35.2h11.9V222.8z M882.9,222.8h-15.6v-35.2h15.6V222.8z M882.9,223.8V259h-15.6v-35.2H882.9z M882.9,262v35.2
	h-15.6V262H882.9z M882.9,298.2v35.2h-15.6v-35.2H882.9z M885.8,298.2h11.9v35.2h-11.9V298.2z M900.7,298.2h8.9v35.2h-8.9V298.2z
	 M912.6,298.2h6.7v35.2h-6.7V298.2z M922.3,298.2h5.2v35.2h-5.2V298.2z M930.5,298.2h5.2v35.2h-5.2V298.2z M938.7,298.2h3.7v35.2
	h-3.7V298.2z M945.4,298.2H987v35.2h-41.7V298.2z M990,298.2h23.1v35.2H990V298.2z M1016,298.2h15.6v35.2H1016V298.2z M1034.6,298.2
	h11.9v35.2h-11.9V298.2z M1049.5,298.2h8.9v35.2h-8.9V298.2z M1061.4,298.2h6.7v35.2h-6.7V298.2z M1071.1,298.2h5.2v35.2h-5.2V298.2
	z M1079.3,298.2h5.2v35.2h-5.2V298.2z M1087.5,298.2h3.7v35.2h-3.7V298.2z M1094.2,298.2h41.7v35.2h-41.7V298.2z M1138.8,298.2h23.1
	v35.2h-23.1V298.2z M1164.9,298.2h16.1v35.2h-16.1V298.2z M1183.9,298.2h11.5v35.2h-11.5V298.2z M1198.3,298.2h8.9v35.2h-8.9V298.2z
	 M1210.3,298.2h6.7v35.2h-6.7V298.2z M1219.9,298.2h5.2v35.2h-5.2V298.2z M1228.1,298.2h5.2v35.2h-5.2V298.2z M1236.3,298.2h3.7
	v35.2h-3.7V298.2z M1243,298.2h41.7v35.2H1243V298.2z M1287.6,298.2h23.1v35.2h-23.1V298.2z M1313.7,298.2h15.6v35.2h-15.6V298.2z
	 M1332.3,298.2h11.9v35.2h-11.9V298.2z M1347.2,298.2h8.9v35.2h-8.9V298.2z M1359.1,298.2h6.7v35.2h-6.7V298.2z M1359.1,297.2V262
	h6.7v35.2H1359.1z M1359.1,259v-35.2h6.7V259H1359.1z M1359.1,222.8v-35.2h6.7v35.2H1359.1z M1359.1,184.6v-35.2h6.7v35.2H1359.1z
	 M1356.1,184.6h-8.9v-35.2h8.9V184.6z M1344.2,184.6h-11.9v-35.2h11.9V184.6z M1329.3,184.6h-15.6v-35.2h15.6V184.6z M1310.7,184.6
	h-23.1v-35.2h23.1V184.6z M1284.7,184.6H1243v-35.2h41.7V184.6z M1240,184.6h-3.7v-35.2h3.7V184.6z M1233.3,184.6h-5.2v-35.2h5.2
	V184.6z M1225.1,184.6h-5.2v-35.2h5.2V184.6z M1216.9,184.6h-6.7v-35.2h6.7V184.6z M1207.3,184.6h-8.9v-35.2h8.9V184.6z
	 M1195.4,184.6h-11.5v-35.2h11.5V184.6z M1180.9,184.6h-16.1v-35.2h16.1V184.6z M1161.9,184.6h-23.1v-35.2h23.1V184.6z
	 M1135.8,184.6h-41.7v-35.2h41.7V184.6z M1091.2,184.6h-3.7v-35.2h3.7V184.6z M1084.5,184.6h-5.2v-35.2h5.2V184.6z M1076.3,184.6
	h-5.2v-35.2h5.2V184.6z M1068.1,184.6h-6.7v-35.2h6.7V184.6z M1058.5,184.6h-8.9v-35.2h8.9V184.6z M1046.6,184.6h-11.9v-35.2h11.9
	V184.6z M1031.7,184.6H1016v-35.2h15.6V184.6z M1013.1,184.6H990v-35.2h23.1V184.6z M987,184.6h-41.7v-35.2H987V184.6z M942.4,184.6
	h-3.7v-35.2h3.7V184.6z M935.7,184.6h-5.2v-35.2h5.2V184.6z M927.5,184.6h-5.2v-35.2h5.2V184.6z M919.3,184.6h-6.7v-35.2h6.7V184.6z
	 M909.6,184.6h-8.9v-35.2h8.9V184.6z M897.7,184.6h-11.9v-35.2h11.9V184.6z M882.9,184.6h-15.6v-35.2h15.6V184.6z M867.2,336.4h15.6
	v35.2h-15.6V336.4z M885.8,336.4h11.9v35.2h-11.9V336.4z M900.7,336.4h8.9v35.2h-8.9V336.4z M912.6,336.4h6.7v35.2h-6.7V336.4z
	 M922.3,336.4h5.2v35.2h-5.2V336.4z M930.5,336.4h5.2v35.2h-5.2V336.4z M938.7,336.4h3.7v35.2h-3.7V336.4z M945.4,336.4H987v35.2
	h-41.7V336.4z M990,336.4h23.1v35.2H990V336.4z M1016,336.4h15.6v35.2H1016V336.4z M1034.6,336.4h11.9v35.2h-11.9V336.4z
	 M1049.5,336.4h8.9v35.2h-8.9V336.4z M1061.4,336.4h6.7v35.2h-6.7V336.4z M1071.1,336.4h5.2v35.2h-5.2V336.4z M1079.3,336.4h5.2
	v35.2h-5.2V336.4z M1087.5,336.4h3.7v35.2h-3.7V336.4z M1094.2,336.4h41.7v35.2h-41.7V336.4z M1138.8,336.4h23.1v35.2h-23.1V336.4z
	 M1164.9,336.4h16.1v35.2h-16.1V336.4z M1183.9,336.4h11.5v35.2h-11.5V336.4z M1198.3,336.4h8.9v35.2h-8.9V336.4z M1210.3,336.4h6.7
	v35.2h-6.7V336.4z M1219.9,336.4h5.2v35.2h-5.2V336.4z M1228.1,336.4h5.2v35.2h-5.2V336.4z M1236.3,336.4h3.7v35.2h-3.7V336.4z
	 M1243,336.4h41.7v35.2H1243V336.4z M1287.6,336.4h23.1v35.2h-23.1V336.4z M1313.7,336.4h15.6v35.2h-15.6V336.4z M1332.3,336.4h11.9
	v35.2h-11.9V336.4z M1347.2,336.4h8.9v35.2h-8.9V336.4z M1359.1,336.4h6.7v35.2h-6.7V336.4z M1368.7,336.4h5.2v35.2h-5.2V336.4z
	 M1368.7,333.4v-35.2h5.2v35.2H1368.7z M1368.7,297.2V262h5.2v35.2H1368.7z M1368.7,259v-35.2h5.2V259H1368.7z M1368.7,222.8v-35.2
	h5.2v35.2H1368.7z M1368.7,184.6v-35.2h5.2v35.2H1368.7z M1368.7,148.4v-35.2h5.2v35.2H1368.7z M1365.8,148.4h-6.7v-35.2h6.7V148.4z
	 M1356.1,148.4h-8.9v-35.2h8.9V148.4z M1344.2,148.4h-11.9v-35.2h11.9V148.4z M1329.3,148.4h-15.6v-35.2h15.6V148.4z M1310.7,148.4
	h-23.1v-35.2h23.1V148.4z M1284.7,148.4H1243v-35.2h41.7V148.4z M1240,148.4h-3.7v-35.2h3.7V148.4z M1233.3,148.4h-5.2v-35.2h5.2
	V148.4z M1225.1,148.4h-5.2v-35.2h5.2V148.4z M1216.9,148.4h-6.7v-35.2h6.7V148.4z M1207.3,148.4h-8.9v-35.2h8.9V148.4z
	 M1195.4,148.4h-11.5v-35.2h11.5V148.4z M1180.9,148.4h-16.1v-35.2h16.1V148.4z M1161.9,148.4h-23.1v-35.2h23.1V148.4z
	 M1135.8,148.4h-41.7v-35.2h41.7V148.4z M1091.2,148.4h-3.7v-35.2h3.7V148.4z M1084.5,148.4h-5.2v-35.2h5.2V148.4z M1076.3,148.4
	h-5.2v-35.2h5.2V148.4z M1068.1,148.4h-6.7v-35.2h6.7V148.4z M1058.5,148.4h-8.9v-35.2h8.9V148.4z M1046.6,148.4h-11.9v-35.2h11.9
	V148.4z M1031.7,148.4H1016v-35.2h15.6V148.4z M1013.1,148.4H990v-35.2h23.1V148.4z M987,148.4h-41.7v-35.2H987V148.4z M942.4,148.4
	h-3.7v-35.2h3.7V148.4z M935.7,148.4h-5.2v-35.2h5.2V148.4z M927.5,148.4h-5.2v-35.2h5.2V148.4z M919.3,148.4h-6.7v-35.2h6.7V148.4z
	 M909.6,148.4h-8.9v-35.2h8.9V148.4z M897.7,148.4h-11.9v-35.2h11.9V148.4z M882.9,148.4h-15.6v-35.2h15.6V148.4z M867.2,372.6h15.6
	v35.2h-15.6V372.6z M885.8,372.6h11.9v35.2h-11.9V372.6z M900.7,372.6h8.9v35.2h-8.9V372.6z M912.6,372.6h6.7v35.2h-6.7V372.6z
	 M922.3,372.6h5.2v35.2h-5.2V372.6z M930.5,372.6h5.2v35.2h-5.2V372.6z M938.7,372.6h3.7v35.2h-3.7V372.6z M945.4,372.6H987v35.2
	h-41.7V372.6z M990,372.6h23.1v35.2H990V372.6z M1016,372.6h15.6v35.2H1016V372.6z M1034.6,372.6h11.9v35.2h-11.9V372.6z
	 M1049.5,372.6h8.9v35.2h-8.9V372.6z M1061.4,372.6h6.7v35.2h-6.7V372.6z M1071.1,372.6h5.2v35.2h-5.2V372.6z M1079.3,372.6h5.2
	v35.2h-5.2V372.6z M1087.5,372.6h3.7v35.2h-3.7V372.6z M1094.2,372.6h41.7v35.2h-41.7V372.6z M1138.8,372.6h23.1v35.2h-23.1V372.6z
	 M1164.9,372.6h16.1v35.2h-16.1V372.6z M1183.9,372.6h11.5v35.2h-11.5V372.6z M1198.3,372.6h8.9v35.2h-8.9V372.6z M1210.3,372.6h6.7
	v35.2h-6.7V372.6z M1219.9,372.6h5.2v35.2h-5.2V372.6z M1228.1,372.6h5.2v35.2h-5.2V372.6z M1236.3,372.6h3.7v35.2h-3.7V372.6z
	 M1243,372.6h41.7v35.2H1243V372.6z M1287.6,372.6h23.1v35.2h-23.1V372.6z M1313.7,372.6h15.6v35.2h-15.6V372.6z M1332.3,372.6h11.9
	v35.2h-11.9V372.6z M1347.2,372.6h8.9v35.2h-8.9V372.6z M1359.1,372.6h6.7v35.2h-6.7V372.6z M1368.7,372.6h5.2v35.2h-5.2V372.6z
	 M1376.9,372.6h5.2v35.2h-5.2V372.6z M1376.9,371.6v-35.2h5.2v35.2H1376.9z M1376.9,333.4v-35.2h5.2v35.2H1376.9z M1376.9,297.2V262
	h5.2v35.2H1376.9z M1376.9,259v-35.2h5.2V259H1376.9z M1376.9,222.8v-35.2h5.2v35.2H1376.9z M1376.9,184.6v-35.2h5.2v35.2H1376.9z
	 M1376.9,148.4v-35.2h5.2v35.2H1376.9z M1376.9,110.2V75h5.2v35.2H1376.9z M1374,110.2h-5.2V75h5.2V110.2z M1365.8,110.2h-6.7V75
	h6.7V110.2z M1356.1,110.2h-8.9V75h8.9V110.2z M1344.2,110.2h-11.9V75h11.9V110.2z M1329.3,110.2h-15.6V75h15.6V110.2z
	 M1310.7,110.2h-23.1V75h23.1V110.2z M1284.7,110.2H1243V75h41.7V110.2z M1240,110.2h-3.7V75h3.7V110.2z M1233.3,110.2h-5.2V75h5.2
	V110.2z M1225.1,110.2h-5.2V75h5.2V110.2z M1216.9,110.2h-6.7V75h6.7V110.2z M1207.3,110.2h-8.9V75h8.9V110.2z M1195.4,110.2h-11.5
	V75h11.5V110.2z M1180.9,110.2h-16.1V75h16.1V110.2z M1161.9,110.2h-23.1V75h23.1V110.2z M1135.8,110.2h-41.7V75h41.7V110.2z
	 M1091.2,110.2h-3.7V75h3.7V110.2z M1084.5,110.2h-5.2V75h5.2V110.2z M1076.3,110.2h-5.2V75h5.2V110.2z M1068.1,110.2h-6.7V75h6.7
	V110.2z M1058.5,110.2h-8.9V75h8.9V110.2z M1046.6,110.2h-11.9V75h11.9V110.2z M1031.7,110.2H1016V75h15.6V110.2z M1013.1,110.2H990
	V75h23.1V110.2z M987,110.2h-41.7V75H987V110.2z M942.4,110.2h-3.7V75h3.7V110.2z M935.7,110.2h-5.2V75h5.2V110.2z M927.5,110.2
	h-5.2V75h5.2V110.2z M919.3,110.2h-6.7V75h6.7V110.2z M909.6,110.2h-8.9V75h8.9V110.2z M897.7,110.2h-11.9V75h11.9V110.2z
	 M882.9,110.2h-15.6V75h15.6V110.2z M864.2,110.2h-23.1V75h23.1V110.2z M864.2,113.2v35.2h-23.1v-35.2H864.2z M864.2,149.4v35.2
	h-23.1v-35.2H864.2z M864.2,187.6v35.2h-23.1v-35.2H864.2z M864.2,223.8V259h-23.1v-35.2H864.2z M864.2,262v35.2h-23.1V262H864.2z
	 M864.2,298.2v35.2h-23.1v-35.2H864.2z M864.2,336.4v35.2h-23.1v-35.2H864.2z M864.2,372.6v35.2h-23.1v-35.2H864.2z M864.2,410.8
	V446h-23.1v-35.2H864.2z M867.2,410.8h15.6V446h-15.6V410.8z M885.8,410.8h11.9V446h-11.9V410.8z M900.7,410.8h8.9V446h-8.9V410.8z
	 M912.6,410.8h6.7V446h-6.7V410.8z M922.3,410.8h5.2V446h-5.2V410.8z M930.5,410.8h5.2V446h-5.2V410.8z M938.7,410.8h3.7V446h-3.7
	V410.8z M945.4,410.8H987V446h-41.7V410.8z M990,410.8h23.1V446H990V410.8z M1016,410.8h15.6V446H1016V410.8z M1034.6,410.8h11.9
	V446h-11.9V410.8z M1049.5,410.8h8.9V446h-8.9V410.8z M1061.4,410.8h6.7V446h-6.7V410.8z M1071.1,410.8h5.2V446h-5.2V410.8z
	 M1079.3,410.8h5.2V446h-5.2V410.8z M1087.5,410.8h3.7V446h-3.7V410.8z M1094.2,410.8h41.7V446h-41.7V410.8z M1138.8,410.8h23.1V446
	h-23.1V410.8z M1164.9,410.8h16.1V446h-16.1V410.8z M1183.9,410.8h11.5V446h-11.5V410.8z M1198.3,410.8h8.9V446h-8.9V410.8z
	 M1210.3,410.8h6.7V446h-6.7V410.8z M1219.9,410.8h5.2V446h-5.2V410.8z M1228.1,410.8h5.2V446h-5.2V410.8z M1236.3,410.8h3.7V446
	h-3.7V410.8z M1243,410.8h41.7V446H1243V410.8z M1287.6,410.8h23.1V446h-23.1V410.8z M1313.7,410.8h15.6V446h-15.6V410.8z
	 M1332.3,410.8h11.9V446h-11.9V410.8z M1347.2,410.8h8.9V446h-8.9V410.8z M1359.1,410.8h6.7V446h-6.7V410.8z M1368.7,410.8h5.2V446
	h-5.2V410.8z M1376.9,410.8h5.2V446h-5.2V410.8z M1385.1,410.8h3.7V446h-3.7V410.8z M1385.1,407.8v-35.2h3.7v35.2H1385.1z
	 M1385.1,371.6v-35.2h3.7v35.2H1385.1z M1385.1,333.4v-35.2h3.7v35.2H1385.1z M1385.1,297.2V262h3.7v35.2H1385.1z M1385.1,259v-35.2
	h3.7V259H1385.1z M1385.1,222.8v-35.2h3.7v35.2H1385.1z M1385.1,184.6v-35.2h3.7v35.2H1385.1z M1385.1,148.4v-35.2h3.7v35.2H1385.1z
	 M1385.1,110.2V75h3.7v35.2H1385.1z M1382.1,74h-5.2V38.8h5.2V74z M1374,74h-5.2V38.8h5.2V74z M1365.8,74h-6.7V38.8h6.7V74z
	 M1356.1,74h-8.9V38.8h8.9V74z M1344.2,74h-11.9V38.8h11.9V74z M1329.3,74h-15.6V38.8h15.6V74z M1310.7,74h-23.1V38.8h23.1V74z
	 M1284.7,74H1243V38.8h41.7V74z M1240,74h-3.7V38.8h3.7V74z M1233.3,74h-5.2V38.8h5.2V74z M1225.1,74h-5.2V38.8h5.2V74z M1216.9,74
	h-6.7V38.8h6.7V74z M1207.3,74h-8.9V38.8h8.9V74z M1195.4,74h-11.5V38.8h11.5V74z M1180.9,74h-16.1V38.8h16.1V74z M1161.9,74h-23.1
	V38.8h23.1V74z M1135.8,74h-41.7V38.8h41.7V74z M1091.2,74h-3.7V38.8h3.7V74z M1084.5,74h-5.2V38.8h5.2V74z M1076.3,74h-5.2V38.8
	h5.2V74z M1068.1,74h-6.7V38.8h6.7V74z M1058.5,74h-8.9V38.8h8.9V74z M1046.6,74h-11.9V38.8h11.9V74z M1031.7,74H1016V38.8h15.6V74z
	 M1013.1,74H990V38.8h23.1V74z M987,74h-41.7V38.8H987V74z M942.4,74h-3.7V38.8h3.7V74z M935.7,74h-5.2V38.8h5.2V74z M927.5,74h-5.2
	V38.8h5.2V74z M919.3,74h-6.7V38.8h6.7V74z M909.6,74h-8.9V38.8h8.9V74z M897.7,74h-11.9V38.8h11.9V74z M882.9,74h-15.6V38.8h15.6
	V74z M864.2,74h-23.1V38.8h23.1V74z M841.2,447h23.1v35.2h-23.1V447z M867.2,447h15.6v35.2h-15.6V447z M885.8,447h11.9v35.2h-11.9
	V447z M900.7,447h8.9v35.2h-8.9V447z M912.6,447h6.7v35.2h-6.7V447z M922.3,447h5.2v35.2h-5.2V447z M930.5,447h5.2v35.2h-5.2V447z
	 M938.7,447h3.7v35.2h-3.7V447z M945.4,447H987v35.2h-41.7V447z M990,447h23.1v35.2H990V447z M1016,447h15.6v35.2H1016V447z
	 M1034.6,447h11.9v35.2h-11.9V447z M1049.5,447h8.9v35.2h-8.9V447z M1061.4,447h6.7v35.2h-6.7V447z M1071.1,447h5.2v35.2h-5.2V447z
	 M1079.3,447h5.2v35.2h-5.2V447z M1087.5,447h3.7v35.2h-3.7V447z M1094.2,447h41.7v35.2h-41.7V447z M1138.8,447h23.1v35.2h-23.1V447
	z M1164.9,447h16.1v35.2h-16.1V447z M1183.9,447h11.5v35.2h-11.5V447z M1198.3,447h8.9v35.2h-8.9V447z M1210.3,447h6.7v35.2h-6.7
	V447z M1219.9,447h5.2v35.2h-5.2V447z M1228.1,447h5.2v35.2h-5.2V447z M1236.3,447h3.7v35.2h-3.7V447z M1243,447h41.7v35.2H1243V447
	z M1287.6,447h23.1v35.2h-23.1V447z M1313.7,447h15.6v35.2h-15.6V447z M1332.3,447h11.9v35.2h-11.9V447z M1347.2,447h8.9v35.2h-8.9
	V447z M1359.1,447h6.7v35.2h-6.7V447z M1368.7,447h5.2v35.2h-5.2V447z M1376.9,447h5.2v35.2h-5.2V447z M1385.1,447h3.7v35.2h-3.7
	V447z M841.2,520.4v-35.2h23.1v35.2H841.2z M867.2,520.4v-35.2h15.6v35.2H867.2z M885.8,520.4v-35.2h11.9v35.2H885.8z M900.7,520.4
	v-35.2h8.9v35.2H900.7z M912.6,520.4v-35.2h6.7v35.2H912.6z M922.3,520.4v-35.2h5.2v35.2H922.3z M930.5,520.4v-35.2h5.2v35.2H930.5z
	 M938.7,520.4v-35.2h3.7v35.2H938.7z M945.4,520.4v-35.2H987v35.2H945.4z M990,520.4v-35.2h23.1v35.2H990z M1016,520.4v-35.2h15.6
	v35.2H1016z M1034.6,520.4v-35.2h11.9v35.2H1034.6z M1049.5,520.4v-35.2h8.9v35.2H1049.5z M1061.4,520.4v-35.2h6.7v35.2H1061.4z
	 M1071.1,520.4v-35.2h5.2v35.2H1071.1z M1079.3,520.4v-35.2h5.2v35.2H1079.3z M1087.5,520.4v-35.2h3.7v35.2H1087.5z M1094.2,520.4
	v-35.2h41.7v35.2H1094.2z M1138.8,520.4v-35.2h23.1v35.2H1138.8z M1164.9,520.4v-35.2h16.1v35.2H1164.9z M1183.9,520.4v-35.2h11.5
	v35.2H1183.9z M1198.3,520.4v-35.2h8.9v35.2H1198.3z M1210.3,520.4v-35.2h6.7v35.2H1210.3z M1219.9,520.4v-35.2h5.2v35.2H1219.9z
	 M1228.1,520.4v-35.2h5.2v35.2H1228.1z M1236.3,520.4v-35.2h3.7v35.2H1236.3z M1243,520.4v-35.2h41.7v35.2H1243z M1287.6,520.4
	v-35.2h23.1v35.2H1287.6z M1313.7,520.4v-35.2h15.6v35.2H1313.7z M1332.3,520.4v-35.2h11.9v35.2H1332.3z M1347.2,520.4v-35.2h8.9
	v35.2H1347.2z M1359.1,520.4v-35.2h6.7v35.2H1359.1z M1368.7,520.4v-35.2h5.2v35.2H1368.7z M1376.9,520.4v-35.2h5.2v35.2H1376.9z
	 M1385.1,520.4v-35.2h3.7v35.2H1385.1z"/>
<polygon id="Axis_1_" class="st0" points="796.9,556.3 796.9,37.3 793.2,37.3 793.2,558.1 795,558.1 795,560 1390.3,560 
	1390.3,556.3 "/>
<g id="g2183_1_" transform="matrix(7.4409448e-2,0,0,7.4409448e-2,-323.47581,-351.05176)">
	<path id="path2185_1_" class="st1" d="M15982.6,12174.8l53-183l24,7l24,7l-53,183l-24-7L15982.6,12174.8z"/>
	<path id="path2187_1_" class="st1" d="M16059.6,11998.8l-24-7l1-1L16059.6,11998.8z"/>
	<path id="path2189_1_" class="st1" d="M16036.6,11990.8l44-137l24,8l24,8l-45,137l-24-8L16036.6,11990.8z"/>
	<path id="path2191_1_" class="st1" d="M16104.6,11861.8l-24-8l1-1L16104.6,11861.8z"/>
	<path id="path2193_1_" class="st1" d="M16081.6,11852.8l47-121l23,9l24,9l-48,121l-23-9L16081.6,11852.8z"/>
	<path id="path2195_1_" class="st1" d="M16151.6,11740.7l-23-9v-1L16151.6,11740.7z"/>
	<path id="path2197_1_" class="st1" d="M16128.6,11730.7l61-137l23,10l23,10l-61,137l-23-10L16128.6,11730.7z"/>
	<path id="path2199_1_" class="st1" d="M16212.6,11603.7l23,9v1L16212.6,11603.7z"/>
	<path id="path2201_1_" class="st1" d="M16189.6,11594.7l47-115l23,10l23,9l-47,114l-23-9L16189.6,11594.7z"/>
	<path id="path2203_1_" class="st1" d="M16259.6,11489.7l23,8v1L16259.6,11489.7z"/>
	<path id="path2205_1_" class="st1" d="M16235.6,11480.7l73-192l24,8l23,9l-73,192l-23-8L16235.6,11480.7z"/>
	<path id="path2207_1_" class="st1" d="M16332.6,11296.7l23,9l0,0L16332.6,11296.7z"/>
	<path id="path2209_1_" class="st1" d="M16308.6,11288.7l189-514l23,8l24,9l-189,514l-23-9L16308.6,11288.7z"/>
	<path id="path2211_1_" class="st1" d="M16520.6,10782.7l24,9l0,0L16520.6,10782.7z"/>
	<path id="path2213_1_" class="st1" d="M16497.6,10774.7l189-518l24,9l23,9l-189,517l-24-9L16497.6,10774.7z"/>
	<path id="path2215_1_" class="st1" d="M16710.6,10265.7l-24-9l0,0L16710.6,10265.7z"/>
	<path id="path2217_1_" class="st1" d="M16686.6,10256.7l74-195l23,8l24,9l-74,196l-23-9L16686.6,10256.7z"/>
	<path id="path2219_1_" class="st1" d="M16783.6,10069.7l-23-8v-1L16783.6,10069.7z"/>
	<path id="path2221_1_" class="st1" d="M16760.6,10060.7l49-119l23,9l23,9l-48,120l-24-10L16760.6,10060.7z"/>
	<path id="path2223_1_" class="st1" d="M16832.6,9950.7l-23-9v-1L16832.6,9950.7z"/>
	<path id="path2225_1_" class="st1" d="M16809.6,9940.7l25-59l23,9l23,10l-25,60l-23-10L16809.6,9940.7z"/>
	<path id="path2227_1_" class="st1" d="M16857.6,9890.7l24,9l-1,1L16857.6,9890.7z"/>
	<path id="path2229_1_" class="st1" d="M16834.6,9881.7l25-63l23,9l24,9l-25,63l-24-9L16834.6,9881.7z"/>
	<path id="path2231_1_" class="st1" d="M16882.6,9827.7l24,8v1L16882.6,9827.7z"/>
	<path id="path2233_1_" class="st1" d="M16859.6,9818.7l48-135l23,8l24,9l-48,135l-24-8L16859.6,9818.7z"/>
	<path id="path2235_1_" class="st1" d="M16930.6,9691.7l24,9l0,0L16930.6,9691.7z"/>
	<path id="path2237_1_" class="st1" d="M16907.6,9683.7l47-137l24,8l23,9l-47,137l-24-9L16907.6,9683.7z"/>
	<path id="path2239_1_" class="st1" d="M16978.6,9554.7l-24-8l0,0L16978.6,9554.7z"/>
	<path id="path2241_1_" class="st1" d="M16954.6,9546.7l48-129l23,9l23,9l-47,128l-23-9L16954.6,9546.7z"/>
	<path id="path2243_1_" class="st1" d="M17025.6,9426.7l-23-9v-1L17025.6,9426.7z"/>
	<path id="path2245_1_" class="st1" d="M17002.6,9416.7l44-98l23,11l22,10l-43,97l-23-10L17002.6,9416.7z"/>
	<path id="path2247_1_" class="st1" d="M17069.6,9329.7l-23-11l0,0L17069.6,9329.7z"/>
	<path id="path2249_1_" class="st1" d="M17046.6,9318.7l65-130l22,11l23,11l-65,130l-22-11L17046.6,9318.7z"/>
	<path id="path2251_1_" class="st1" d="M17133.6,9199.7l-22-11v-1L17133.6,9199.7z"/>
	<path id="path2253_1_" class="st1" d="M17111.6,9187.7l167-316l23,11l22,12l-168,316l-22-11L17111.6,9187.7z"/>
	<path id="path2255_1_" class="st1" d="M17301.6,8882.7l-23-11l1-1L17301.6,8882.7z"/>
	<path id="path2257_1_" class="st1" d="M17279.6,8870.7l317-572l22,12l22,12l-318,572l-21-12L17279.6,8870.7z"/>
	<path id="path2259_1_" class="st1" d="M17618.6,8310.7l-22-12v-1L17618.6,8310.7z"/>
	<path id="path2261_1_" class="st1" d="M17596.6,8297.7l107-181l21,13l22,12l-106,182l-22-13L17596.6,8297.7z"/>
	<path id="path2263_1_" class="st1" d="M17724.6,8129.7l-21-13v-1L17724.6,8129.7z"/>
	<path id="path2265_1_" class="st1" d="M17703.6,8115.7l145-225l21,14l21,13l-145,225l-21-13L17703.6,8115.7z"/>
	<path id="path2267_1_" class="st1" d="M17869.6,7904.7l-21-14l1-1L17869.6,7904.7z"/>
	<path id="path2269_1_" class="st1" d="M17849.6,7889.7l83-115l20,14l21,15l-83,115l-21-14L17849.6,7889.7z"/>
	<path id="path2271_1_" class="st1" d="M17952.6,7788.7l-20-14l1-1L17952.6,7788.7z"/>
	<path id="path2273_1_" class="st1" d="M17933.6,7773.7l88-110l19,15l20,16l-88,110l-20-16L17933.6,7773.7z"/>
	<path id="path2275_1_" class="st1" d="M18040.6,7678.7l-19-15l1-2L18040.6,7678.7z"/>
	<path id="path2277_1_" class="st1" d="M18022.6,7661.7l91-99l18,17l19,17l-91,99l-19-17L18022.6,7661.7z"/>
	<path id="path2279_1_" class="st1" d="M18131.6,7579.7l-18-17l1-1L18131.6,7579.7z"/>
	<path id="path2281_1_" class="st1" d="M18114.6,7561.7l46-43l18,18l17,18l-47,44l-17-19L18114.6,7561.7z"/>
	<path id="path2283_1_" class="st1" d="M18178.6,7536.7l-18-18l2-1L18178.6,7536.7z"/>
	<path id="path2285_1_" class="st1" d="M18162.6,7517.7l46-39l16,19l16,19l-46,39l-16-19L18162.6,7517.7z"/>
	<path id="path2287_1_" class="st1" d="M18224.6,7497.7l-16-19l1-1L18224.6,7497.7z"/>
	<path id="path2289_1_" class="st1" d="M18209.6,7477.7l79-59l15,20l15,20l-79,59l-15-20L18209.6,7477.7z"/>
	<path id="path2291_1_" class="st1" d="M18303.6,7438.7l-15-20l1-1L18303.6,7438.7z"/>
	<path id="path2293_1_" class="st1" d="M18289.6,7417.7l80-53l14,20l14,21l-80,54l-14-21L18289.6,7417.7z"/>
	<path id="path2295_1_" class="st1" d="M18383.6,7384.7l-14-20l1-1L18383.6,7384.7z"/>
	<path id="path2297_1_" class="st1" d="M18370.6,7363.7l78-48l13,22l13,21l-79,48l-12-22L18370.6,7363.7z"/>
	<path id="path2299_1_" class="st1" d="M18461.6,7337.7l-13-22h2L18461.6,7337.7z"/>
	<path id="path2301_1_" class="st1" d="M18450.6,7315.7l77-41l12,22l12,22l-78,41l-12-22L18450.6,7315.7z"/>
	<path id="path2303_1_" class="st1" d="M18539.6,7296.7l-12-22l2-1L18539.6,7296.7z"/>
	<path id="path2305_1_" class="st1" d="M18529.6,7273.7l76-34l10,23l11,22l-77,35l-10-23L18529.6,7273.7z"/>
	<path id="path2307_1_" class="st1" d="M18615.6,7262.7l-10-23l2-1L18615.6,7262.7z"/>
	<path id="path2309_1_" class="st1" d="M18607.6,7238.7l75-26l8,23l8,24l-74,26l-9-23L18607.6,7238.7z"/>
	<path id="path2311_1_" class="st1" d="M18690.6,7235.7l-8-23l2-1L18690.6,7235.7z"/>
	<path id="path2313_1_" class="st1" d="M18684.6,7211.7l72-18l6,24l6,24l-72,18l-6-24L18684.6,7211.7z"/>
	<path id="path2315_1_" class="st1" d="M18762.6,7217.7l-6-24l2-1L18762.6,7217.7z"/>
	<path id="path2317_1_" class="st1" d="M18758.6,7192.7l35-6l4,25l4,24l-35,6l-4-24L18758.6,7192.7z"/>
	<path id="path2319_1_" class="st1" d="M18797.6,7211.7l-4-25h1L18797.6,7211.7z"/>
	<path id="path2321_1_" class="st1" d="M18794.6,7186.7l34-4l3,25l3,25l-34,4l-3-25L18794.6,7186.7z"/>
	<path id="path2323_1_" class="st1" d="M18831.6,7207.7l5,24l-2,1L18831.6,7207.7z"/>
	<path id="path2325_1_" class="st1" d="M18826.6,7183.7L18826.6,7183.7l5,24l5,24l0,0l-5-24L18826.6,7183.7z"/>
	<path id="path2327_1_" class="st1" d="M18831.6,7207.7l-5-24l0,0L18831.6,7207.7z"/>
	<path id="path2329_1_" class="st1" d="M18826.6,7183.7L18826.6,7183.7l5,24l5,24l0,0l-5-24L18826.6,7183.7z"/>
	<path id="path2331_1_" class="st1" d="M18831.6,7207.7l-5-24l0,0L18831.6,7207.7z"/>
	<path id="path2333_1_" class="st1" d="M18826.6,7183.7L18826.6,7183.7l5,24l5,24l0,0l-5-24L18826.6,7183.7z"/>
	<path id="path2335_1_" class="st1" d="M18831.6,7207.7l-5-24l0,0L18831.6,7207.7z"/>
	<path id="path2337_1_" class="st1" d="M18826.6,7183.7L18826.6,7183.7l5,24l5,24l0,0l-5-24L18826.6,7183.7z"/>
	<path id="path2339_1_" class="st1" d="M18831.6,7207.7l-5-24l0,0L18831.6,7207.7z"/>
	<path id="path2341_1_" class="st1" d="M18826.6,7183.7v-1l5,25l6,24h-1l-5-24L18826.6,7183.7z"/>
	<path id="path2343_1_" class="st1" d="M18831.6,7207.7l-5-25l0,0L18831.6,7207.7z"/>
	<path id="path2345_1_" class="st1" d="M18826.6,7182.7h1l6,25l5,24h-2l-5-24L18826.6,7182.7z"/>
	<path id="path2347_1_" class="st1" d="M18833.6,7207.7l-6-25h1L18833.6,7207.7z"/>
	<path id="path2349_1_" class="st1" d="M18828.6,7182.7l4-1l5,25l5,24l-5,1l-4-24L18828.6,7182.7z"/>
	<path id="path2351_1_" class="st1" d="M18837.6,7206.7l-5-25h1L18837.6,7206.7z"/>
	<path id="path2353_1_" class="st1" d="M18833.6,7181.7l16-3l4,25l5,25l-17,2l-4-24L18833.6,7181.7z"/>
	<path id="path2355_1_" class="st1" d="M18853.6,7203.7l-4-25h1L18853.6,7203.7z"/>
	<path id="path2357_1_" class="st1" d="M18850.6,7178.7l24-3l3,24l4,25l-24,4l-4-25L18850.6,7178.7z"/>
	<path id="path2359_1_" class="st1" d="M18877.6,7199.7l-3-24l1-1L18877.6,7199.7z"/>
	<path id="path2361_1_" class="st1" d="M18875.6,7174.7l30-3l2,25l3,25l-30,3l-3-25L18875.6,7174.7z"/>
	<path id="path2363_1_" class="st1" d="M18907.6,7196.7l-2-25h1L18907.6,7196.7z"/>
	<path id="path2365_1_" class="st1" d="M18906.6,7171.7l33-2l2,25l1,25l-33,2l-2-25L18906.6,7171.7z"/>
	<path id="path2367_1_" class="st1" d="M18941.6,7194.7l-2-25h2V7194.7z"/>
	<path id="path2369_1_" class="st1" d="M18941.6,7169.7l34,1v25l-1,25l-34-1l1-25V7169.7z"/>
	<path id="path2371_1_" class="st1" d="M18975.6,7195.7v-25h2L18975.6,7195.7z"/>
	<path id="path2373_1_" class="st1" d="M18977.6,7170.7l17,1l-2,25l-3,25l-16-1l2-25L18977.6,7170.7z"/>
	<path id="path2375_1_" class="st1" d="M18992.6,7196.7l2-25l1,1L18992.6,7196.7z"/>
	<path id="path2377_1_" class="st1" d="M18995.6,7172.7l17,2l-4,25l-4,24l-16-2l4-25L18995.6,7172.7z"/>
	<path id="path2379_1_" class="st1" d="M19008.6,7199.7l4-25h1L19008.6,7199.7z"/>
	<path id="path2381_1_" class="st1" d="M19013.6,7174.7l16,4l-6,24l-6,25l-15-4l6-24L19013.6,7174.7z"/>
	<path id="path2383_1_" class="st1" d="M19023.6,7202.7l6-24l2,1L19023.6,7202.7z"/>
	<path id="path2385_1_" class="st1" d="M19031.6,7179.7l14,4l-8,24l-8,24l-14-5l8-24L19031.6,7179.7z"/>
	<path id="path2387_1_" class="st1" d="M19037.6,7207.7l8-24l3,1L19037.6,7207.7z"/>
	<path id="path2389_1_" class="st1" d="M19048.6,7184.7l28,14l-10,23l-11,22l-29-13l11-23L19048.6,7184.7z"/>
	<path id="path2391_1_" class="st1" d="M19066.6,7221.7l10-23l3,2L19066.6,7221.7z"/>
	<path id="path2393_1_" class="st1" d="M19079.6,7200.7l24,15l-14,21l-13,21l-24-15l14-21L19079.6,7200.7z"/>
	<path id="path2395_1_" class="st1" d="M19089.6,7236.7l14-21l2,2L19089.6,7236.7z"/>
	<path id="path2397_1_" class="st1" d="M19105.6,7217.7l20,16l-16,19l-16,19l-20-16l16-19L19105.6,7217.7z"/>
	<path id="path2399_1_" class="st1" d="M19109.6,7252.7l16-19l2,2L19109.6,7252.7z"/>
	<path id="path2401_1_" class="st1" d="M19127.6,7235.7l16,17l-18,17l-18,17l-16-17l18-17L19127.6,7235.7z"/>
	<path id="path2403_1_" class="st1" d="M19125.6,7269.7l18-17l2,2L19125.6,7269.7z"/>
	<path id="path2405_1_" class="st1" d="M19145.6,7254.7l13,18l-20,15l-20,15l-13-18l20-15L19145.6,7254.7z"/>
	<path id="path2407_1_" class="st1" d="M19138.6,7287.7l20-15l2,2L19138.6,7287.7z"/>
	<path id="path2409_1_" class="st1" d="M19160.6,7274.7l11,18l-22,13l-21,13l-11-18l21-13L19160.6,7274.7z"/>
	<path id="path2411_1_" class="st1" d="M19149.6,7305.7l22-13l1,2L19149.6,7305.7z"/>
	<path id="path2413_1_" class="st1" d="M19172.6,7294.7l18,36l-22,11l-23,11l-18-36l22-11L19172.6,7294.7z"/>
	<path id="path2415_1_" class="st1" d="M19168.6,7341.7l-22,11h-1L19168.6,7341.7z"/>
	<path id="path2417_1_" class="st1" d="M19190.6,7330.7l17,33l-22,12l-22,11l-17-34l22-11L19190.6,7330.7z"/>
	<path id="path2419_1_" class="st1" d="M19185.6,7375.7l-21,13l-1-2L19185.6,7375.7z"/>
	<path id="path2421_1_" class="st1" d="M19206.6,7361.7l10,16l-21,13l-21,14l-10-16l21-13L19206.6,7361.7z"/>
	<path id="path2423_1_" class="st1" d="M19195.6,7390.7l-19,16l-2-2L19195.6,7390.7z"/>
	<path id="path2425_1_" class="st1" d="M19215.6,7374.7l11,14l-19,16l-19,16l-12-14l19-16L19215.6,7374.7z"/>
	<path id="path2427_1_" class="st1" d="M19207.6,7404.7l-17,19l-2-3L19207.6,7404.7z"/>
	<path id="path2429_1_" class="st1" d="M19224.6,7386.7l7,7l-17,18l-17,18l-7-6l17-19L19224.6,7386.7z"/>
	<path id="path2431_1_" class="st1" d="M19214.6,7411.7l-16,19l-1-1L19214.6,7411.7z"/>
	<path id="path2433_1_" class="st1" d="M19230.6,7391.7l7,7l-16,19l-15,19l-8-6l16-19L19230.6,7391.7z"/>
	<path id="path2435_1_" class="st1" d="M19221.6,7417.7l-14,21l-1-2L19221.6,7417.7z"/>
	<path id="path2437_1_" class="st1" d="M19235.6,7396.7l9,6l-14,21l-14,20l-9-5l14-21L19235.6,7396.7z"/>
	<path id="path2439_1_" class="st1" d="M19230.6,7423.7l-13,21l-1-1L19230.6,7423.7z"/>
	<path id="path2441_1_" class="st1" d="M19242.6,7401.7l9,5l-12,22l-13,21l-9-5l13-21L19242.6,7401.7z"/>
	<path id="path2443_1_" class="st1" d="M19239.6,7428.7l-11,22l-2-1L19239.6,7428.7z"/>
	<path id="path2445_1_" class="st1" d="M19249.6,7405.7l10,4l-10,23l-11,23l-10-5l11-22L19249.6,7405.7z"/>
	<path id="path2447_1_" class="st1" d="M19249.6,7432.7l-9,24l-2-1L19249.6,7432.7z"/>
	<path id="path2449_1_" class="st1" d="M19257.6,7409.7l11,3l-8,24l-9,24l-11-4l9-24L19257.6,7409.7z"/>
	<path id="path2451_1_" class="st1" d="M19260.6,7436.7l-6,24h-3L19260.6,7436.7z"/>
	<path id="path2453_1_" class="st1" d="M19265.6,7412.7l26,6l-6,24l-6,24l-25-6l6-24L19265.6,7412.7z"/>
	<path id="path2455_1_" class="st1" d="M19285.6,7442.7l-3,25l-3-1L19285.6,7442.7z"/>
	<path id="path2457_1_" class="st1" d="M19288.6,7417.7l14,2l-3,25l-3,24l-14-1l3-25L19288.6,7417.7z"/>
	<path id="path2459_1_" class="st1" d="M19299.6,7444.7l-1,25l-2-1L19299.6,7444.7z"/>
	<path id="path2461_1_" class="st1" d="M19300.6,7419.7h13v25l-1,25h-14l1-25L19300.6,7419.7z"/>
	<path id="path2463_1_" class="st1" d="M19313.6,7444.7l1,25h-2L19313.6,7444.7z"/>
	<path id="path2465_1_" class="st1" d="M19311.6,7419.7l14-1l1,25l2,25l-14,1l-1-25L19311.6,7419.7z"/>
	<path id="path2467_1_" class="st1" d="M19326.6,7443.7l4,25h-2L19326.6,7443.7z"/>
	<path id="path2469_1_" class="st1" d="M19322.6,7419.7l14-2l4,24l3,25l-13,2l-4-25L19322.6,7419.7z"/>
	<path id="path2471_1_" class="st1" d="M19340.6,7441.7l6,24l-3,1L19340.6,7441.7z"/>
	<path id="path2473_1_" class="st1" d="M19333.6,7417.7l26-7l7,24l7,24l-27,7l-6-24L19333.6,7417.7z"/>
	<path id="path2475_1_" class="st1" d="M19366.6,7434.7l10,23l-3,1L19366.6,7434.7z"/>
	<path id="path2477_1_" class="st1" d="M19356.6,7411.7l26-11l10,23l10,23l-26,11l-10-23L19356.6,7411.7z"/>
	<path id="path2479_1_" class="st1" d="M19392.6,7423.7l13,21l-3,2L19392.6,7423.7z"/>
	<path id="path2481_1_" class="st1" d="M19379.6,7401.7l25-15l13,22l13,21l-25,15l-13-21L19379.6,7401.7z"/>
	<path id="path2483_1_" class="st1" d="M19417.6,7408.7l15,20l-2,1L19417.6,7408.7z"/>
	<path id="path2485_1_" class="st1" d="M19402.6,7388.7l25-18l15,20l14,20l-24,18l-15-20L19402.6,7388.7z"/>
	<path id="path2487_1_" class="st1" d="M19442.6,7390.7l16,19l-2,1L19442.6,7390.7z"/>
	<path id="path2489_1_" class="st1" d="M19425.6,7371.7l24-21l17,19l16,19l-24,21l-16-19L19425.6,7371.7z"/>
	<path id="path2491_1_" class="st1" d="M19466.6,7369.7l17,18l-1,1L19466.6,7369.7z"/>
	<path id="path2493_1_" class="st1" d="M19448.6,7351.7l23-22l18,17l17,18l-23,23l-17-18L19448.6,7351.7z"/>
	<path id="path2495_1_" class="st1" d="M19489.6,7346.7l19,17l-2,1L19489.6,7346.7z"/>
	<path id="path2497_1_" class="st1" d="M19470.6,7330.7l44-51l19,17l19,16l-44,51l-19-17L19470.6,7330.7z"/>
	<path id="path2499_1_" class="st1" d="M19533.6,7296.7l20,15l-1,1L19533.6,7296.7z"/>
	<path id="path2501_1_" class="st1" d="M19513.6,7281.7l41-54l20,15l20,15l-41,54l-20-15L19513.6,7281.7z"/>
	<path id="path2503_1_" class="st1" d="M19574.6,7242.7l20,14v1L19574.6,7242.7z"/>
	<path id="path2505_1_" class="st1" d="M19553.6,7228.7l70-103l21,14l21,14l-71,103l-20-14L19553.6,7228.7z"/>
	<path id="path2507_1_" class="st1" d="M19644.6,7139.7l-21-14l0,0L19644.6,7139.7z"/>
	<path id="path2509_1_" class="st1" d="M19623.6,7125.7l49-71l21,14l20,14l-48,71l-21-14L19623.6,7125.7z"/>
	<path id="path2511_1_" class="st1" d="M19693.6,7068.7l-21-14l1-1L19693.6,7068.7z"/>
	<path id="path2513_1_" class="st1" d="M19673.6,7053.7l43-58l20,15l20,15l-43,58l-20-15L19673.6,7053.7z"/>
	<path id="path2515_1_" class="st1" d="M19736.6,7010.7l-20-15l1-1L19736.6,7010.7z"/>
	<path id="path2517_1_" class="st1" d="M19717.6,6994.7l39-48l19,16l20,16l-40,48l-19-16L19717.6,6994.7z"/>
	<path id="path2519_1_" class="st1" d="M19775.6,6962.7l-19-16l1-1L19775.6,6962.7z"/>
	<path id="path2521_1_" class="st1" d="M19757.6,6945.7l39-40l18,17l18,17l-39,40l-18-17L19757.6,6945.7z"/>
	<path id="path2523_1_" class="st1" d="M19814.6,6922.7l-18-17l1-2L19814.6,6922.7z"/>
	<path id="path2525_1_" class="st1" d="M19797.6,6903.7l39-35l17,19l17,18l-40,36l-16-19L19797.6,6903.7z"/>
	<path id="path2527_1_" class="st1" d="M19853.6,6887.7l-17-19l2-1L19853.6,6887.7z"/>
	<path id="path2529_1_" class="st1" d="M19838.6,6867.7l43-34l15,20l16,20l-43,33l-16-19L19838.6,6867.7z"/>
	<path id="path2531_1_" class="st1" d="M19896.6,6853.7l-15-20l1-1L19896.6,6853.7z"/>
	<path id="path2533_1_" class="st1" d="M19882.6,6832.7l106-73l14,21l14,21l-106,73l-14-21L19882.6,6832.7z"/>
	<path id="path2535_1_" class="st1" d="M20002.6,6780.7l-14-21l4-2l4-1l4-1h2V6780.7z"/>
	<path id="path2537_1_" class="st1" d="M20002.6,6755.7h67v25v25h-67v-25V6755.7z"/>
	<path id="path2539_1_" class="st1" d="M20069.6,6780.7v-25h1L20069.6,6780.7z"/>
	<path id="path2541_1_" class="st1" d="M20070.6,6755.7l32,1l-1,25l-1,25l-32-1l1-25L20070.6,6755.7z"/>
	<path id="path2543_1_" class="st1" d="M20101.6,6781.7l1-25h1L20101.6,6781.7z"/>
	<path id="path2545_1_" class="st1" d="M20103.6,6756.7l35,3l-2,25l-2,25l-35-3l2-25L20103.6,6756.7z"/>
	<path id="path2547_1_" class="st1" d="M20136.6,6784.7l2-25h1L20136.6,6784.7z"/>
	<path id="path2549_1_" class="st1" d="M20139.6,6759.7l36,4l-3,25l-3,25l-36-4l3-25L20139.6,6759.7z"/>
	<path id="path2551_1_" class="st1" d="M20172.6,6788.7l3-25h1L20172.6,6788.7z"/>
	<path id="path2553_1_" class="st1" d="M20176.6,6763.7l37,6l-4,25l-4,25l-37-6l4-25L20176.6,6763.7z"/>
	<path id="path2555_1_" class="st1" d="M20209.6,6794.7l4-25l2,1L20209.6,6794.7z"/>
	<path id="path2557_1_" class="st1" d="M20215.6,6770.7l25,6l-6,25l-6,24l-25-7l6-24L20215.6,6770.7z"/>
	<path id="path2559_1_" class="st1" d="M20234.6,6801.7l6-25l3,1L20234.6,6801.7z"/>
	<path id="path2561_1_" class="st1" d="M20243.6,6777.7l24,9l-9,24l-9,23l-24-9l9-23L20243.6,6777.7z"/>
	<path id="path2563_1_" class="st1" d="M20258.6,6810.7l9-24l2,1L20258.6,6810.7z"/>
	<path id="path2565_1_" class="st1" d="M20269.6,6787.7l22,12l-11,22l-11,22l-22-11l11-22L20269.6,6787.7z"/>
	<path id="path2567_1_" class="st1" d="M20280.6,6821.7l11-22l2,1L20280.6,6821.7z"/>
	<path id="path2569_1_" class="st1" d="M20293.6,6800.7l21,12l-13,22l-13,21l-21-13l13-21L20293.6,6800.7z"/>
	<path id="path2571_1_" class="st1" d="M20301.6,6834.7l13-22l2,2L20301.6,6834.7z"/>
	<path id="path2573_1_" class="st1" d="M20316.6,6814.7l19,14l-14,20l-15,20l-19-14l14-20L20316.6,6814.7z"/>
	<path id="path2575_1_" class="st1" d="M20321.6,6848.7l14-20l2,1L20321.6,6848.7z"/>
	<path id="path2577_1_" class="st1" d="M20337.6,6829.7l18,15l-16,19l-16,19l-18-15l16-19L20337.6,6829.7z"/>
	<path id="path2579_1_" class="st1" d="M20339.6,6863.7l16-19l1,1L20339.6,6863.7z"/>
	<path id="path2581_1_" class="st1" d="M20356.6,6845.7l16,15l-17,18l-17,19l-16-16l17-18L20356.6,6845.7z"/>
	<path id="path2583_1_" class="st1" d="M20355.6,6878.7l17-18l1,1L20355.6,6878.7z"/>
	<path id="path2585_1_" class="st1" d="M20373.6,6861.7l15,16l-18,17l-18,17l-15-15l18-18L20373.6,6861.7z"/>
	<path id="path2587_1_" class="st1" d="M20370.6,6894.7l18-17l1,1L20370.6,6894.7z"/>
	<path id="path2589_1_" class="st1" d="M20389.6,6878.7l26,30l-19,16l-20,16l-25-30l19-16L20389.6,6878.7z"/>
	<path id="path2591_1_" class="st1" d="M20396.6,6924.7l19-16l1,1L20396.6,6924.7z"/>
	<path id="path2593_1_" class="st1" d="M20416.6,6909.7l18,25l-20,15l-20,15l-19-26l21-14L20416.6,6909.7z"/>
	<path id="path2595_1_" class="st1" d="M20414.6,6949.7l20-15l1,1L20414.6,6949.7z"/>
	<path id="path2597_1_" class="st1" d="M20435.6,6935.7l11,18l-21,13l-21,14l-11-17l21-14L20435.6,6935.7z"/>
	<path id="path2599_1_" class="st1" d="M20425.6,6966.7l21-13l1,1L20425.6,6966.7z"/>
	<path id="path2601_1_" class="st1" d="M20447.6,6954.7l3,5l-22,12l-21,13l-3-5l21-13L20447.6,6954.7z"/>
	<path id="path2603_1_" class="st1" d="M20428.6,6971.7l22-12l0,0L20428.6,6971.7z"/>
	<path id="path2605_1_" class="st1" d="M20450.6,6959.7v1l-21,13l-22,12l-1-1l22-13L20450.6,6959.7z"/>
	<path id="path2607_1_" class="st1" d="M20429.6,6973.7l21-13h1L20429.6,6973.7z"/>
	<path id="path2609_1_" class="st1" d="M20451.6,6960.7v1l-22,12l-22,12l0,0l22-12L20451.6,6960.7z"/>
	<path id="path2611_1_" class="st1" d="M20429.6,6973.7l22-12l0,0L20429.6,6973.7z"/>
	<path id="path2613_1_" class="st1" d="M20451.6,6961.7L20451.6,6961.7l-22,12l-22,12l0,0l22-12L20451.6,6961.7z"/>
	<path id="path2615_1_" class="st1" d="M20429.6,6973.7l22-12l0,0L20429.6,6973.7z"/>
	<path id="path2617_1_" class="st1" d="M20451.6,6961.7L20451.6,6961.7l-22,12l-22,12l0,0l22-12L20451.6,6961.7z"/>
	<path id="path2619_1_" class="st1" d="M20429.6,6973.7l22-12l0,0L20429.6,6973.7z"/>
	<path id="path2621_1_" class="st1" d="M20451.6,6961.7L20451.6,6961.7l-22,12l-22,12l0,0l22-12L20451.6,6961.7z"/>
	<path id="path2623_1_" class="st1" d="M20429.6,6973.7l22-12l0,0L20429.6,6973.7z"/>
	<path id="path2625_1_" class="st1" d="M20451.6,6961.7L20451.6,6961.7l-22,12l-22,12l0,0l22-12L20451.6,6961.7z"/>
	<path id="path2627_1_" class="st1" d="M20429.6,6973.7l-21,14l-1-2L20429.6,6973.7z"/>
	<path id="path2629_1_" class="st1" d="M20450.6,6959.7l74,112l-21,14l-20,14l-75-112l21-14L20450.6,6959.7z"/>
	<path id="path2631_1_" class="st1" d="M20503.6,7085.7l21-14l1,2L20503.6,7085.7z"/>
	<path id="path2633_1_" class="st1" d="M20525.6,7073.7l32,55l-22,13l-22,12l-31-56l21-12L20525.6,7073.7z"/>
	<path id="path2635_1_" class="st1" d="M20535.6,7141.7l22-13v1L20535.6,7141.7z"/>
	<path id="path2637_1_" class="st1" d="M20557.6,7129.7l32,63l-22,12l-22,11l-32-63l22-11L20557.6,7129.7z"/>
	<path id="path2639_1_" class="st1" d="M20567.6,7204.7l22-12l1,2L20567.6,7204.7z"/>
	<path id="path2641_1_" class="st1" d="M20590.6,7194.7l30,69l-23,9l-23,10l-30-68l23-10L20590.6,7194.7z"/>
	<path id="path2643_1_" class="st1" d="M20597.6,7272.7l23-9v1L20597.6,7272.7z"/>
	<path id="path2645_1_" class="st1" d="M20620.6,7264.7l26,73l-24,8l-24,8l-25-72l24-9L20620.6,7264.7z"/>
	<path id="path2647_1_" class="st1" d="M20622.6,7345.7l24-8v1L20622.6,7345.7z"/>
	<path id="path2649_1_" class="st1" d="M20646.6,7338.7l59,207l-24,6l-24,7l-59-206l24-7L20646.6,7338.7z"/>
	<path id="path2651_1_" class="st1" d="M20681.6,7551.7l24-6v1L20681.6,7551.7z"/>
	<path id="path2653_1_" class="st1" d="M20705.6,7546.7l43,178l-24,5l-24,6l-44-178l25-6L20705.6,7546.7z"/>
	<path id="path2655_1_" class="st1" d="M20724.6,7729.7l24-5l0,0L20724.6,7729.7z"/>
	<path id="path2657_1_" class="st1" d="M20748.6,7724.7l32,154l-25,5l-24,5l-32-154l25-5L20748.6,7724.7z"/>
	<path id="path2659_1_" class="st1" d="M20755.6,7883.7l25-5v1L20755.6,7883.7z"/>
	<path id="path2661_1_" class="st1" d="M20780.6,7879.7l22,132l-25,4l-25,4l-22-132l25-4L20780.6,7879.7z"/>
	<path id="path2663_1_" class="st1" d="M20777.6,8015.7l25-4l0,0L20777.6,8015.7z"/>
	<path id="path2665_1_" class="st1" d="M20802.6,8011.7l27,216l-25,3l-25,3l-27-215l25-3L20802.6,8011.7z"/>
	<path id="path2667_1_" class="st1" d="M20804.6,8230.7l25-3l0,0L20804.6,8230.7z"/>
	<path id="path2669_1_" class="st1" d="M20829.6,8227.7l11,91l-25,3l-24,3l-12-91l25-3L20829.6,8227.7z"/>
	<path id="path2671_1_" class="st1" d="M20815.6,8321.7l-24,4v-1L20815.6,8321.7z"/>
	<path id="path2673_1_" class="st1" d="M20840.6,8317.7l14,85l-25,4l-25,4l-13-85l24-4L20840.6,8317.7z"/>
	<path id="path2675_1_" class="st1" d="M20829.6,8406.7l-23,10l-1-4l-1-2L20829.6,8406.7z"/>
	<path id="path2677_1_" class="st1" d="M20852.6,8396.7l65,150l-23,10l-23,10l-65-150l23-10L20852.6,8396.7z"/>
	<path id="path2679_1_" class="st1" d="M20894.6,8556.7l-22,13l-1-3L20894.6,8556.7z"/>
	<path id="path2681_1_" class="st1" d="M20915.6,8543.7l15,24l-22,13l-21,13l-15-24l22-13L20915.6,8543.7z"/>
	<path id="path2683_1_" class="st1" d="M20908.6,8580.7l-20,14l-1-1L20908.6,8580.7z"/>
	<path id="path2685_1_" class="st1" d="M20929.6,8565.7l15,22l-20,15l-21,14l-15-22l20-14L20929.6,8565.7z"/>
	<path id="path2687_1_" class="st1" d="M20924.6,8602.7l-19,16l-2-2L20924.6,8602.7z"/>
	<path id="path2689_1_" class="st1" d="M20942.6,8585.7l16,18l-18,16l-19,17l-16-18l19-16L20942.6,8585.7z"/>
	<path id="path2691_1_" class="st1" d="M20940.6,8619.7l-17,19l-2-2L20940.6,8619.7z"/>
	<path id="path2693_1_" class="st1" d="M20956.6,8601.7l8,7l-16,19l-17,18l-8-7l17-19L20956.6,8601.7z"/>
	<path id="path2695_1_" class="st1" d="M20948.6,8627.7l-15,20l-2-2L20948.6,8627.7z"/>
	<path id="path2697_1_" class="st1" d="M20962.6,8606.7l8,6l-14,21l-14,20l-9-6l15-20L20962.6,8606.7z"/>
	<path id="path2699_1_" class="st1" d="M20956.6,8633.7l-12,22l-2-2L20956.6,8633.7z"/>
	<path id="path2701_1_" class="st1" d="M20968.6,8610.7l8,5l-12,22l-11,22l-9-4l12-22L20968.6,8610.7z"/>
	<path id="path2703_1_" class="st1" d="M20964.6,8637.7l-7,24l-4-2L20964.6,8637.7z"/>
	<path id="path2705_1_" class="st1" d="M20972.6,8613.7l8,3l-7,24l-8,23l-8-2l7-24L20972.6,8613.7z"/>
	<path id="path2707_1_" class="st1" d="M20973.6,8640.7l-3,24h-4l-1-1L20973.6,8640.7z"/>
	<path id="path2709_1_" class="st1" d="M20975.6,8615.7l9,1l-3,24l-3,25l-8-1l3-24L20975.6,8615.7z"/>
	<path id="path2711_1_" class="st1" d="M20981.6,8640.7l3,25h-4h-2L20981.6,8640.7z"/>
	<path id="path2713_1_" class="st1" d="M20978.6,8616.7l8-1l3,24l3,25l-8,1l-3-25L20978.6,8616.7z"/>
	<path id="path2715_1_" class="st1" d="M20989.6,8639.7l9,24l-4,1h-2L20989.6,8639.7z"/>
	<path id="path2717_1_" class="st1" d="M20980.6,8616.7l9-3l9,23l8,24l-8,3l-9-24L20980.6,8616.7z"/>
	<path id="path2719_1_" class="st1" d="M20998.6,8636.7l13,21l-4,2l-1,1L20998.6,8636.7z"/>
	<path id="path2721_1_" class="st1" d="M20984.6,8615.7l8-5l14,21l13,21l-8,5l-13-21L20984.6,8615.7z"/>
	<path id="path2723_1_" class="st1" d="M21006.6,8631.7l17,18l-3,3h-1L21006.6,8631.7z"/>
	<path id="path2725_1_" class="st1" d="M20989.6,8613.7l8-8l17,18l17,18l-8,8l-17-18L20989.6,8613.7z"/>
	<path id="path2727_1_" class="st1" d="M21014.6,8623.7l20,16l-3,2L21014.6,8623.7z"/>
	<path id="path2729_1_" class="st1" d="M20994.6,8608.7l8-10l20,15l20,15l-8,11l-20-16L20994.6,8608.7z"/>
	<path id="path2731_1_" class="st1" d="M21022.6,8613.7l21,13l-1,2L21022.6,8613.7z"/>
	<path id="path2733_1_" class="st1" d="M21001.6,8600.7l21-34l21,13l21,14l-21,33l-21-13L21001.6,8600.7z"/>
	<path id="path2735_1_" class="st1" d="M21043.6,8579.7l22,12l-1,2L21043.6,8579.7z"/>
	<path id="path2737_1_" class="st1" d="M21021.6,8568.7l18-33l22,11l22,12l-18,33l-22-12L21021.6,8568.7z"/>
	<path id="path2739_1_" class="st1" d="M21061.6,8546.7l23,10l-1,2L21061.6,8546.7z"/>
	<path id="path2741_1_" class="st1" d="M21038.6,8536.7l14-32l23,10l23,10l-14,32l-23-10L21038.6,8536.7z"/>
	<path id="path2743_1_" class="st1" d="M21075.6,8514.7l23,8v2L21075.6,8514.7z"/>
	<path id="path2745_1_" class="st1" d="M21051.6,8505.7l12-32l23,9l24,8l-12,32l-23-8L21051.6,8505.7z"/>
	<path id="path2747_1_" class="st1" d="M21086.6,8482.7l24,6v2L21086.6,8482.7z"/>
	<path id="path2749_1_" class="st1" d="M21062.6,8475.7l17-62l24,7l24,7l-17,61l-24-6L21062.6,8475.7z"/>
	<path id="path2751_1_" class="st1" d="M21103.6,8420.7l25,5l-1,2L21103.6,8420.7z"/>
	<path id="path2753_1_" class="st1" d="M21079.6,8415.7l12-57l25,5l24,5l-12,57l-25-5L21079.6,8415.7z"/>
	<path id="path2755_1_" class="st1" d="M21116.6,8363.7l-25-5v-1L21116.6,8363.7z"/>
	<path id="path2757_1_" class="st1" d="M21091.6,8357.7l12-51l24,5l25,6l-12,52l-24-6L21091.6,8357.7z"/>
	<path id="path2759_1_" class="st1" d="M21127.6,8311.7l-24-5v-2L21127.6,8311.7z"/>
	<path id="path2761_1_" class="st1" d="M21103.6,8304.7l7-23l24,7l24,7l-7,23l-24-7L21103.6,8304.7z"/>
	<path id="path2763_1_" class="st1" d="M21134.6,8288.7l-24-7l1-2L21134.6,8288.7z"/>
	<path id="path2765_1_" class="st1" d="M21111.6,8279.7l8-22l24,9l23,9l-8,22l-24-9L21111.6,8279.7z"/>
	<path id="path2767_1_" class="st1" d="M21143.6,8266.7l-24-9l2-2L21143.6,8266.7z"/>
	<path id="path2769_1_" class="st1" d="M21121.6,8255.7l10-20l22,11l22,12l-10,20l-22-12L21121.6,8255.7z"/>
	<path id="path2771_1_" class="st1" d="M21153.6,8246.7l-22-11l2-3L21153.6,8246.7z"/>
	<path id="path2773_1_" class="st1" d="M21133.6,8232.7l13-18l20,15l20,14l-13,18l-20-15L21133.6,8232.7z"/>
	<path id="path2775_1_" class="st1" d="M21166.6,8229.7l-20-15l2-2L21166.6,8229.7z"/>
	<path id="path2777_1_" class="st1" d="M21148.6,8212.7l7-8l18,17l19,17l-8,8l-18-17L21148.6,8212.7z"/>
	<path id="path2779_1_" class="st1" d="M21173.6,8221.7l-18-17l2-2L21173.6,8221.7z"/>
	<path id="path2781_1_" class="st1" d="M21157.6,8202.7l8-7l17,18l16,19l-8,7l-17-18L21157.6,8202.7z"/>
	<path id="path2783_1_" class="st1" d="M21182.6,8213.7l-17-18l2-2L21182.6,8213.7z"/>
	<path id="path2785_1_" class="st1" d="M21167.6,8193.7l9-7l15,20l15,20l-9,7l-15-20L21167.6,8193.7z"/>
	<path id="path2787_1_" class="st1" d="M21191.6,8206.7l-15-20l2-1L21191.6,8206.7z"/>
	<path id="path2789_1_" class="st1" d="M21178.6,8185.7l10-6l13,21l13,21l-10,7l-13-22L21178.6,8185.7z"/>
	<path id="path2791_1_" class="st1" d="M21201.6,8200.7l-13-21l2-1L21201.6,8200.7z"/>
	<path id="path2793_1_" class="st1" d="M21190.6,8178.7l10-5l11,22l11,23l-10,4l-11-22L21190.6,8178.7z"/>
	<path id="path2795_1_" class="st1" d="M21211.6,8195.7l-11-22l4-2L21211.6,8195.7z"/>
	<path id="path2797_1_" class="st1" d="M21204.6,8171.7l10-3l7,24l8,24l-10,3l-8-24L21204.6,8171.7z"/>
	<path id="path2799_1_" class="st1" d="M21221.6,8192.7l-7-24l4-1L21221.6,8192.7z"/>
	<path id="path2801_1_" class="st1" d="M21218.6,8167.7l9-1l4,24l4,25l-10,2l-4-25L21218.6,8167.7z"/>
	<path id="path2803_1_" class="st1" d="M21231.6,8190.7l-4-24l5-1L21231.6,8190.7z"/>
	<path id="path2805_1_" class="st1" d="M21232.6,8165.7l9,1v25l-1,25l-10-1l1-25L21232.6,8165.7z"/>
	<path id="path2807_1_" class="st1" d="M21241.6,8191.7v-25h4L21241.6,8191.7z"/>
	<path id="path2809_1_" class="st1" d="M21245.6,8166.7l10,2l-5,25l-5,24l-9-2l5-24L21245.6,8166.7z"/>
	<path id="path2811_1_" class="st1" d="M21250.6,8193.7l5-25l4,1L21250.6,8193.7z"/>
	<path id="path2813_1_" class="st1" d="M21259.6,8169.7l9,4l-9,23l-8,23l-10-3l9-23L21259.6,8169.7z"/>
	<path id="path2815_1_" class="st1" d="M21259.6,8196.7l9-23l4,1l1,1L21259.6,8196.7z"/>
	<path id="path2817_1_" class="st1" d="M21273.6,8175.7l18,11l-14,21l-13,21l-18-11l13-21L21273.6,8175.7z"/>
	<path id="path2819_1_" class="st1" d="M21277.6,8207.7l14-21l3,3l1,1L21277.6,8207.7z"/>
	<path id="path2821_1_" class="st1" d="M21295.6,8190.7l17,16l-18,18l-17,18l-17-17l17-18L21295.6,8190.7z"/>
	<path id="path2823_1_" class="st1" d="M21294.6,8224.7l18-18l2,3L21294.6,8224.7z"/>
	<path id="path2825_1_" class="st1" d="M21314.6,8209.7l17,22l-20,15l-20,15l-17-22l20-15L21314.6,8209.7z"/>
	<path id="path2827_1_" class="st1" d="M21311.6,8246.7l20-15l1,3L21311.6,8246.7z"/>
	<path id="path2829_1_" class="st1" d="M21332.6,8234.7l16,27l-22,12l-21,13l-16-27l22-13L21332.6,8234.7z"/>
	<path id="path2831_1_" class="st1" d="M21326.6,8273.7l22-12l1,1L21326.6,8273.7z"/>
	<path id="path2833_1_" class="st1" d="M21349.6,8262.7l15,32l-23,10l-22,11l-15-31l22-11L21349.6,8262.7z"/>
	<path id="path2835_1_" class="st1" d="M21341.6,8304.7l23-10l1,1L21341.6,8304.7z"/>
	<path id="path2837_1_" class="st1" d="M21365.6,8295.7l27,74l-23,9l-24,9l-27-74l23-9L21365.6,8295.7z"/>
	<path id="path2839_1_" class="st1" d="M21369.6,8378.7l23-9l1,2L21369.6,8378.7z"/>
	<path id="path2841_1_" class="st1" d="M21393.6,8371.7l25,85l-24,7l-24,7l-25-85l24-7L21393.6,8371.7z"/>
	<path id="path2843_1_" class="st1" d="M21394.6,8463.7l24-7v2L21394.6,8463.7z"/>
	<path id="path2845_1_" class="st1" d="M21418.6,8458.7l41,192l-24,6l-24,5l-42-193l25-5L21418.6,8458.7z"/>
	<path id="path2847_1_" class="st1" d="M21435.6,8656.7l24-6l1,2L21435.6,8656.7z"/>
	<path id="path2849_1_" class="st1" d="M21460.6,8652.7l31,198l-25,4l-25,4l-31-198l25-4L21460.6,8652.7z"/>
	<path id="path2851_1_" class="st1" d="M21466.6,8854.7l25-4v1L21466.6,8854.7z"/>
	<path id="path2853_1_" class="st1" d="M21491.6,8851.7l21,176l-24,3l-25,3l-22-176l25-3L21491.6,8851.7z"/>
	<path id="path2855_1_" class="st1" d="M21488.6,9030.7l24-3v1L21488.6,9030.7z"/>
	<path id="path2857_1_" class="st1" d="M21512.6,9028.7l13,126l-25,3l-25,2l-12-126l25-3L21512.6,9028.7z"/>
	<path id="path2859_1_" class="st1" d="M21500.6,9157.7l25-3v1L21500.6,9157.7z"/>
	<path id="path2861_1_" class="st1" d="M21525.6,9155.7l3,35l-25,2l-25,2l-3-35l25-2L21525.6,9155.7z"/>
	<path id="path2863_1_" class="st1" d="M21503.6,9192.7l25-2l0,0L21503.6,9192.7z"/>
	<path id="path2865_1_" class="st1" d="M21528.6,9190.7l1,10l-25,2l-25,2l-1-10l25-2L21528.6,9190.7z"/>
	<path id="path2867_1_" class="st1" d="M21504.6,9202.7l25-2l0,0L21504.6,9202.7z"/>
	<path id="path2869_1_" class="st1" d="M21529.6,9200.7v2l-25,2l-25,2v-2l25-2L21529.6,9200.7z"/>
	<path id="path2871_1_" class="st1" d="M21504.6,9204.7l25-2l0,0L21504.6,9204.7z"/>
	<path id="path2873_1_" class="st1" d="M21529.6,9202.7v1l-25,2l-25,2v-1l25-2L21529.6,9202.7z"/>
	<path id="path2875_1_" class="st1" d="M21504.6,9205.7l25-2l0,0L21504.6,9205.7z"/>
	<path id="path2877_1_" class="st1" d="M21529.6,9203.7L21529.6,9203.7l-25,2l-25,2l0,0l25-2L21529.6,9203.7z"/>
	<path id="path2879_1_" class="st1" d="M21504.6,9205.7l25-2l0,0L21504.6,9205.7z"/>
	<path id="path2881_1_" class="st1" d="M21529.6,9203.7L21529.6,9203.7l-25,2l-25,2l0,0l25-2L21529.6,9203.7z"/>
	<path id="path2883_1_" class="st1" d="M21504.6,9205.7l25-2l0,0L21504.6,9205.7z"/>
	<path id="path2885_1_" class="st1" d="M21529.6,9203.7L21529.6,9203.7l-25,2l-25,2l0,0l25-2L21529.6,9203.7z"/>
	<path id="path2887_1_" class="st1" d="M21504.6,9205.7l25-2v1L21504.6,9205.7z"/>
	<path id="path2889_1_" class="st1" d="M21529.6,9204.7l96,1626l-25,1l-25,1l-96-1626l25-1L21529.6,9204.7z"/>
	<path id="path2891_1_" class="st1" d="M21600.6,10831.7l25-1l0,0L21600.6,10831.7z"/>
	<path id="path2893_1_" class="st1" d="M21625.6,10830.7l8,302h-25l-25,1l-8-301l25-1L21625.6,10830.7z"/>
	<path id="path2895_1_" class="st1" d="M21608.6,11132.7l-25,1l0,0L21608.6,11132.7z"/>
	<path id="path2897_1_" class="st1" d="M21633.6,11131.7l9,251l-25,1l-25,1l-9-251l25-1L21633.6,11131.7z"/>
	<path id="path2899_1_" class="st1" d="M21617.6,11383.7l-25,2v-1L21617.6,11383.7z"/>
	<path id="path2901_1_" class="st1" d="M21642.6,11382.7l11,206l-25,1l-25,1l-11-205l25-2L21642.6,11382.7z"/>
	<path id="path2903_1_" class="st1" d="M21628.6,11589.7l25-1l0,0L21628.6,11589.7z"/>
	<path id="path2905_1_" class="st1" d="M21653.6,11588.7l19,369l-25,2l-25,1l-19-370l25-1L21653.6,11588.7z"/>
	<path id="path2907_1_" class="st1" d="M21647.6,11959.8l25-2v1L21647.6,11959.8z"/>
	<path id="path2909_1_" class="st1" d="M21672.6,11958.8l6,166l-25,1l-25,1l-6-166l25-1L21672.6,11958.8z"/>
	<path id="path2911_1_" class="st1" d="M21653.6,12125.8l25-1l0,0L21653.6,12125.8z"/>
	<path id="path2913_1_" class="st1" d="M21678.6,12124.8l2,51l-25,1l-25,1l-2-51l25-1L21678.6,12124.8z"/>
	<path id="path2915_1_" class="st1" d="M21655.6,12176.8l25-1l0,0L21655.6,12176.8z"/>
	<path id="path2917_1_" class="st1" d="M21680.6,12175.8l1,14l-25,1l-25,1l-1-14l25-1L21680.6,12175.8z"/>
	<path id="path2919_1_" class="st1" d="M21656.6,12190.8l25-1l0,0L21656.6,12190.8z"/>
	<path id="path2921_1_" class="st1" d="M21681.6,12189.8v4l-25,1l-25,1v-4l25-1L21681.6,12189.8z"/>
	<path id="path2923_1_" class="st1" d="M21656.6,12194.8l25-1l0,0L21656.6,12194.8z"/>
	<path id="path2925_1_" class="st1" d="M21681.6,12193.8v1l-25,1l-25,1v-1l25-1L21681.6,12193.8z"/>
	<path id="path2927_1_" class="st1" d="M21656.6,12195.8l25-1l0,0L21656.6,12195.8z"/>
	<path id="path2929_1_" class="st1" d="M21681.6,12194.8L21681.6,12194.8l-25,1l-25,1l0,0l25-1L21681.6,12194.8z"/>
	<path id="path2931_1_" class="st1" d="M21656.6,12195.8l25-1l0,0L21656.6,12195.8z"/>
	<path id="path2933_1_" class="st1" d="M21681.6,12194.8L21681.6,12194.8l-25,1l-25,1l0,0l25-1L21681.6,12194.8z"/>
	<path id="path2935_1_" class="st1" d="M21656.6,12195.8l25-1l0,0L21656.6,12195.8z"/>
	<path id="path2937_1_" class="st1" d="M21681.6,12194.8L21681.6,12194.8l-25,1l-25,1l0,0l25-1L21681.6,12194.8z"/>
	<path id="path2939_1_" class="st1" d="M21656.6,12195.8l25-1l0,0L21656.6,12195.8z"/>
	<path id="path2941_1_" class="st1" d="M21681.6,12194.8L21681.6,12194.8l-25,1l-25,1l0,0l25-1L21681.6,12194.8z"/>
</g>
<g>
	<text transform="matrix(1 0 0 1 97.6333 592.7236)" class="st2 st3">10</text>
	<text transform="matrix(1 0 0 1 240.739 592.7236)" class="st2 st3">100</text>
	<text transform="matrix(1 0 0 1 381.8273 592.7236)" class="st2 st3">1000</text>
	<text transform="matrix(1 0 0 1 525.0032 592.7236)" class="st2 st3">10k</text>
	<text transform="matrix(1 0 0 1 668.275 592.7236)" class="st2 st3">100k</text>
</g>
<g>
	<text transform="matrix(1 0 0 1 780.9177 592.7236)" class="st2 st3">10</text>
	<text transform="matrix(1 0 0 1 924.0234 592.7236)" class="st2 st3">100</text>
	<text transform="matrix(1 0 0 1 1065.1117 592.7236)" class="st2 st3">1000</text>
	<text transform="matrix(1 0 0 1 1208.2876 592.7236)" class="st2 st3">10k</text>
	<text transform="matrix(1 0 0 1 1351.5594 592.7236)" class="st2 st3">100k</text>
</g>
<g>
	<text transform="matrix(1 0 0 1 77.6333 194.694)" class="st2 st3">0</text>
	<text transform="matrix(1 0 0 1 46.582 124.2514)" class="st2 st3">+10</text>
	<text transform="matrix(1 0 0 1 46.582 49.0977)" class="st2 st3">+20</text>
	<text transform="matrix(1 0 0 1 54.6743 269.2523)" class="st2 st3">-10</text>
	<text transform="matrix(1 0 0 1 54.6743 343.2895)" class="st2 st3">-20</text>
	<text transform="matrix(1 0 0 1 54.6743 412.2162)" class="st2 st3">-30</text>
	<text transform="matrix(1 0 0 1 54.6743 488.9324)" class="st2 st3">-40</text>
	<text transform="matrix(1 0 0 1 54.6743 565.3502)" class="st2 st3">-50</text>
</g>
<text transform="matrix(4.489659e-11 -1 1 4.489659e-11 38.1448 355.2915)" class="st2 st4">Gain (dBFS)</text>
</svg>
