<?xml version="1.0" encoding="utf-8"?>
<!-- Generator: Adobe Illustrator 19.2.0, SVG Export Plug-In . SVG Version: 6.00 Build 0)  -->
<svg version="1.1" id="Layer_1" xmlns="http://www.w3.org/2000/svg" xmlns:xlink="http://www.w3.org/1999/xlink" x="0px" y="0px"
	 viewBox="0 0 512 512" style="enable-background:new 0 0 512 512;" xml:space="preserve">
<g>
	<rect x="37.8" y="237.8" width="14.6" height="12.6"/>
</g>
<g>
	<rect x="37.8" y="269.3" width="14.6" height="12.6"/>
</g>
<g>
	<rect x="37.8" y="174.9" width="14.6" height="12.6"/>
</g>
<g>
	<rect x="37.8" y="206.4" width="14.6" height="12.6"/>
</g>
<g>
	<rect x="37.8" y="300.8" width="14.6" height="12.6"/>
</g>
<g>
	<rect x="37.8" y="332.3" width="14.6" height="12.6"/>
</g>
<g>
	<rect x="37.8" y="143.4" width="14.6" height="12.6"/>
</g>
<g>
	<rect x="73.4" y="237.8" width="35" height="12.6"/>
</g>
<g>
	<rect x="73.4" y="269.3" width="76.7" height="12.6"/>
</g>
<g>
	<rect x="73.4" y="174.9" width="403.1" height="12.6"/>
</g>
<g>
	<rect x="73.4" y="206.4" width="294.2" height="12.6"/>
</g>
<g>
	<rect x="73.4" y="300.8" width="173.6" height="12.6"/>
</g>
<g>
	<rect x="73.4" y="332.3" width="134.7" height="12.6"/>
</g>
<g>
	<rect x="73.4" y="143.4" width="43.1" height="12.6"/>
</g>
<g>
	<circle cx="40.8" cy="97.3" r="6.2"/>
</g>
<g>
	<circle cx="62.9" cy="97.3" r="6.2"/>
</g>
<g>
	<circle cx="84.9" cy="97.3" r="6.2"/>
</g>
<path d="M511.9,108.8c-0.2-3-1-9.9-4.2-16.8c-4.1-8.8-12.9-19.4-31.3-19.4H37.8C9,72.6,0.7,95.4,0.1,108.8H0v283.9h257.1h109.2
	l14.3,42.8l19.6-19.6l24.5,24.5l28.9-28.9l-18.7-18.7H512L511.9,108.8L511.9,108.8z M37.8,85.1h438.7c19.6,0,22.5,17.8,22.9,23.6
	H257.1H12.7C13.1,102.9,16.3,85.1,37.8,85.1z M435.8,411.3l-11.1,11.1l-24.5-24.5l-14.1,14.1l-19.3-58l58,19.3l-13.4,13.4
	L435.8,411.3z M499.4,380h-63.5l12.1-12.1l-101.2-33.7l15.3,45.8h-105H12.6V121.4h244.5h242.3V380z"/>
</svg>
