<?xml version="1.0" encoding="utf-8"?>
<!-- Generator: Adobe Illustrator 19.2.0, SVG Export Plug-In . SVG Version: 6.00 Build 0)  -->
<svg version="1.1" id="Layer_1" xmlns="http://www.w3.org/2000/svg" xmlns:xlink="http://www.w3.org/1999/xlink" x="0px" y="0px"
	 viewBox="0 0 617.4 338.5" style="enable-background:new 0 0 617.4 338.5;" xml:space="preserve">
<g>
	<path d="M180.8,51.9l-0.5,1v228.2c-9.5-3.9-22.4-3.5-34.9,1.9c-20.1,8.7-31.5,27.2-25.3,41.3c6.1,14.1,27.4,18.5,47.5,9.8
		c17.4-7.5,28-17.1,28-45.4V84.1l104.7-21.7v198.7c-9.5-3.9-22.4-3.5-34.9,1.9c-20.1,8.7-31.5,27.2-25.3,41.3
		c6.1,14.1,27.4,18.5,47.5,9.8c17.4-7.5,28-17.1,28-45.4V59.2l104.7-21.7v203.6c-9.5-3.9-22.4-3.5-34.9,1.9
		c-20.1,8.7-31.5,27.2-25.3,41.3c6.1,14.1,27.4,18.5,47.5,9.8c17.4-7.5,28-17.1,28-45.4V0.1L435.4,0L180.8,51.9z"/>
	<path d="M16.9,194.4v1.3l51.2,37.2c-0.3,0.8-0.8,1.6-1.5,2.7c-0.8,1-1.6,2.1-2.6,3.1c-0.9,1.1-1.9,2.1-2.8,2.9
		c-0.9,0.9-1.7,1.5-2.4,1.9L0,200.5l0.6-11.4L57.3,147c0.9,0.5,1.9,1.2,3,2.1l3.4,2.5c1.1,0.8,2.2,1.6,3.1,2.5
		c0.9,0.9,1.7,1.6,2.4,2.3L16.9,194.4z"/>
	<g>
		<path d="M467.5,277.3c-0.8-0.1-1.7-0.3-2.9-0.7c-1.2-0.3-2.5-0.7-3.8-1.1c-1.3-0.4-2.6-0.9-3.7-1.4c-1.1-0.5-2-0.9-2.5-1.3
			l64.3-169.4c1.6,0,4,0.2,6.9,0.5c3,0.3,5.3,0.7,7.1,1.2L467.5,277.3z"/>
		<path d="M558.4,244.5c-0.6-0.4-1.4-1-2.4-1.9c-0.9-0.9-1.9-1.9-2.8-2.9c-0.9-1.1-1.8-2.1-2.6-3.2c-0.8-1.1-1.3-2-1.5-2.8
			l51.4-37.9v-1.3l-52.8-37.2c1.3-1.4,3.1-3,5.5-4.9c2.4-1.9,4.6-3.4,6.6-4.4l56.9,41.2l0.6,11.4L558.4,244.5z"/>
	</g>
</g>
</svg>
