<?xml version="1.0" encoding="utf-8"?>
<!-- Generator: Adobe Illustrator 19.2.0, SVG Export Plug-In . SVG Version: 6.00 Build 0)  -->
<svg version="1.1" id="Layer_1" xmlns="http://www.w3.org/2000/svg" xmlns:xlink="http://www.w3.org/1999/xlink" x="0px" y="0px"
	 viewBox="0 0 200 165.9" style="enable-background:new 0 0 200 165.9;" xml:space="preserve">
<g>
	<polygon points="17.4,54.6 89.4,57.9 89.4,52.9 17.4,48.9 	"/>
	<polygon points="17.4,30.5 17.4,36.2 89.4,41.6 89.4,36.5 	"/>
	<polygon points="184.4,30.5 111.4,36.5 111.4,41.6 184.4,36.1 	"/>
	<path d="M100.8,12.9L0.4,0v165.9L100.8,153l99.6,12.9V0L100.8,12.9z M5.4,6.5l93,11v130.9l-93,11V6.5z M194.4,159.4l-91-11V17.5
		l91-11V159.4z"/>
	<polygon points="17.4,73 89.4,74.2 89.4,69.2 17.4,67.4 	"/>
	<polygon points="17.4,91.5 89.4,90.5 89.4,85.5 17.4,85.8 	"/>
	<polygon points="17.4,109.9 89.4,106.8 89.4,101.8 17.4,104.2 	"/>
	<polygon points="17.4,128.3 71.4,124.4 71.4,119.2 17.4,122.6 	"/>
	<polygon points="184.4,48.9 111.4,52.8 111.4,57.9 184.4,54.6 	"/>
	<polygon points="164.4,67.8 111.4,69.2 111.4,74.2 164.4,73.3 	"/>
	<polygon points="184.4,85.8 111.4,85.5 111.4,90.5 184.4,91.5 	"/>
	<polygon points="184.4,104.2 111.4,101.8 111.4,106.8 184.4,109.9 	"/>
	<polygon points="136.4,124.9 136.4,119.7 111.4,118.1 111.4,123.1 	"/>
</g>
</svg>
