<?xml version="1.0" encoding="utf-8"?>
<!-- Generator: Adobe Illustrator 22.1.0, SVG Export Plug-In . SVG Version: 6.00 Build 0)  -->
<svg version="1.1" id="Layer_1" xmlns="http://www.w3.org/2000/svg" xmlns:xlink="http://www.w3.org/1999/xlink" x="0px" y="0px"
	 viewBox="0 0 696.2 445" style="enable-background:new 0 0 696.2 445;" xml:space="preserve">
<style type="text/css">
	.st0{fill:#00B7C6;}
	.st1{fill:#555555;}
</style>
<path class="st0" d="M381,79.3v65.1c31.9,13,54.5,44.4,54.5,81c0,48.3-39.1,87.4-87.4,87.4s-87.4-39.1-87.4-87.4
	c0-37.7,23.9-69.8,57.4-82.1V78.5C250,92.3,198,152.8,198,225.3C198,308,265.2,375,347.9,375c82.7,0,149.7-67,149.7-149.7
	C497.6,154,448,94.3,381,79.3z"/>
<path class="st1" d="M364,0v290c0,9.5-6.5,17.2-16,17.2c-9.5,0-16-7.7-16-17.2V0h-36v324.4l36,18.3V445h32V342.7l35-18.3V0H364z
	 M616.3,133.9L629.6,86h-29l-85.9,308h29l60.8-218.2l48.5,65l-70.3,94.1l29,18.9l84.4-113L616.3,133.9z M83.9,353.8L0,240.9
	L83.9,128l29,18.9l-70.3,94l70.3,94L83.9,353.8L83.9,353.8z"/>
</svg>
