<?xml version="1.0" encoding="utf-8"?>
<!-- Generator: Adobe Illustrator 16.0.0, SVG Export Plug-In . SVG Version: 6.00 Build 0)  -->
<!DOCTYPE svg PUBLIC "-//W3C//DTD SVG 1.1//EN" "http://www.w3.org/Graphics/SVG/1.1/DTD/svg11.dtd">
<svg version="1.1" xmlns="http://www.w3.org/2000/svg" xmlns:xlink="http://www.w3.org/1999/xlink" x="0px" y="0px" width="1000px"
     height="1000px" viewBox="0 0 1000 1000" enable-background="new 0 0 1000 1000" xml:space="preserve">
<g id="Guides" display="none">
</g>
<g id="Twitter">
    <path id="twitter-icon" d="M990,196.047c-36.054,15.994-74.803,26.818-115.469,31.66c41.499-24.867,73.39-64.263,88.398-111.217
        c-38.858,23.027-81.879,39.768-127.684,48.772c-36.667-39.065-88.924-63.475-146.745-63.475
        c-129.786,0-225.185,121.099-195.857,246.865c-167.1-8.392-315.248-88.431-414.415-210.056
        c-52.662,90.337-27.322,208.566,62.226,268.426c-32.953-1.053-63.957-10.102-91.06-25.154
        c-2.191,93.143,64.57,180.257,161.25,199.669c-28.297,7.713-59.29,9.467-90.786,3.463
        c25.569,79.863,99.824,137.992,187.816,139.613C223.145,790.85,116.682,820.451,10,807.875
        c88.978,57.033,194.674,90.336,308.214,90.336c373.278,0,584.176-315.291,571.458-598.067
        C928.969,271.792,963.05,236.385,990,196.047z"/>
</g>
</svg>
